<svg xmlns="http://www.w3.org/2000/svg" viewBox="0 0 1000 1000" width="1000" height="1000">
	<style>
		tspan { white-space:pre }
		.shp0 { fill: none;stroke: #ff7f03;stroke-linecap:round;stroke-linejoin:round;stroke-width: 15.016 } 
		.shp1 { fill: none;stroke: #ff7f03;stroke-linecap:round;stroke-linejoin:round;stroke-width: 10.01 } 
		.shp2 { fill: none;stroke: #ff7f03;stroke-linecap:round;stroke-linejoin:round;stroke-width: 6.464 } 
		.shp3 { fill: none;stroke: #762efa;stroke-width: 2.772 } 
		.shp4 { fill: none;stroke: #762efa;stroke-width: 2.016 } 
		.shp5 { fill: none;stroke: #00ca73;stroke-width: 3.332 } 
		.shp6 { fill: none;stroke: #00ca73;stroke-width: 2.092 } 
		.shp7 { fill: none;stroke: #00ca73;stroke-width: 5.006 } 
		.shp8 { fill: none;stroke: #00ca73;stroke-width: 2.094 } 
		.shp9 { fill: none;stroke: #762efa;stroke-width: 1.746 } 
		.shp10 { fill: none;stroke: #ec008c;stroke-linecap:round;stroke-linejoin:round;stroke-width: 5.006 } 
		.shp11 { fill: none;stroke: #60a9dd;stroke-linecap:round;stroke-linejoin:round;stroke-width: 5.006 } 
	</style>
	<g id="bg" style="opacity: 0.4">
		<path id="Path 3" class="shp0" d="M616.19 813.63C616.19 834.57 598.58 851.56 576.86 851.56C555.14 851.56 537.53 834.57 537.53 813.63C537.53 792.68 555.14 775.7 576.86 775.7C598.58 775.7 616.19 792.68 616.19 813.63ZM358.87 205.1C358.87 214.24 351.19 221.64 341.71 221.64C332.24 221.64 324.56 214.24 324.56 205.1C324.56 195.97 332.24 188.56 341.71 188.56C351.19 188.56 358.87 195.97 358.87 205.1Z" />
		<path id="Path 4" class="shp1" d="M912.13 380.54C912.13 436.69 864.93 482.2 806.71 482.2C748.49 482.2 701.29 436.69 701.29 380.54C701.29 324.4 748.49 278.89 806.71 278.89C864.93 278.89 912.13 324.4 912.13 380.54Z" />
		<path id="Path 5" class="shp2" d="M139.36 672.43C139.36 708.67 108.89 738.06 71.3 738.06C33.71 738.06 3.24 708.67 3.24 672.43C3.24 636.18 33.71 606.79 71.3 606.79C108.89 606.79 139.36 636.18 139.36 672.43Z" />
		<path id="Path 6" class="shp3" d="M193.08 832.57C193.08 852.64 176.2 868.91 155.38 868.91C134.57 868.91 117.69 852.64 117.69 832.57C117.69 812.49 134.57 796.22 155.38 796.22C176.2 796.22 193.08 812.49 193.08 832.57Z" />
		<path id="Path 7" class="shp4" d="M566.25 143.72C566.25 158.33 553.97 170.17 538.82 170.17C523.67 170.17 511.39 158.33 511.39 143.72C511.39 129.11 523.67 117.27 538.82 117.27C553.97 117.27 566.25 129.11 566.25 143.72Z" />
		<path id="Path 8" class="shp5" d="M156.92 497.72C156.92 507.45 148.74 515.33 138.66 515.33C128.58 515.33 120.41 507.45 120.41 497.72C120.41 488 128.58 480.12 138.66 480.12C148.74 480.12 156.92 488 156.92 497.72Z" />
		<path id="Path 9" class="shp6" d="M71.18 237.77C71.18 243.88 66.05 248.82 59.72 248.82C53.39 248.82 48.26 243.88 48.26 237.77C48.26 231.67 53.39 226.72 59.72 226.72C66.05 226.72 71.18 231.67 71.18 237.77Z" />
		<path id="Path 10" class="shp7" d="M668.13 324.35C668.13 329.21 664.04 333.15 659 333.15C653.96 333.15 649.88 329.21 649.88 324.35C649.88 319.48 653.96 315.54 659 315.54C664.04 315.54 668.13 319.48 668.13 324.35Z" />
		<path id="Path 11" class="shp8" d="M866.39 683.95C866.39 690.06 861.25 695.02 854.92 695.02C848.58 695.02 843.45 690.06 843.45 683.95C843.45 677.84 848.58 672.89 854.92 672.89C861.25 672.89 866.39 677.84 866.39 683.95Z" />
		<path id="Path 12" class="shp9" d="M918.58 456.14C918.58 468.79 907.95 479.04 894.84 479.04C881.73 479.04 871.1 468.79 871.1 456.14C871.1 443.5 881.73 433.24 894.84 433.24C907.95 433.24 918.58 443.5 918.58 456.14Z" />
		<path id="Path 13" class="shp10" d="M132.74 278.89L0.34 433.38M295.84 134.49L54.5 414.23M249.5 225.61L49.69 458.92M345.19 690.29L239.27 813.63M394.95 683.95L312.29 779.28M491.24 803.27L410.99 900M519.33 832.57L467.17 893.04M1000 580.41L776.11 841.96M971.91 662.43L772.1 896.13" />
		<path id="Path 14" class="shp11" d="M804.6 156.74C806.06 168.96 806.17 185.16 796.58 191.56C783.54 200.25 762.04 184.55 752.44 193.11C748.76 196.39 745.97 204 752.84 224.06M986.76 419.45C991.45 443.01 994.08 474.75 975.93 489.68C950.86 510.28 906.73 481.92 880.84 502.45C870 511.03 859.64 530.32 868.8 579.63M183.9 365.67C186.62 372.8 188.97 381.55 185.1 384.82C179.73 389.36 166.45 379.88 161.83 384.24C159.93 386.04 159.16 390.52 165.04 402.62M609.1 229.96C610.12 235.52 610.27 241.62 606.7 244.47C601.19 248.85 590.7 242.5 587.14 246.5C585.73 248.08 585.3 251.37 588.94 258.69M636.79 366.06C639.01 378.63 636.46 383.27 633.78 385.21C627.53 389.72 617.18 381.98 610.31 386.66C605.56 389.89 605.16 397.21 605.49 402.62M792.36 666.5C796.64 687.01 792.81 695.64 787.95 699.58C776.85 708.56 756.68 696.09 747.23 704.99C740.86 710.99 742.96 723.25 746.22 733.63M755.05 789.34C759.89 800.62 759.27 806.72 756.45 810.04C750.36 817.23 734.8 810.46 728.97 817.59C725.39 821.96 727.14 829.55 730.77 837.51M334.06 801.63C337.79 814.75 335.8 820.67 332.7 823.54C325.64 830.07 311.09 822.23 305.02 828.76C301.28 832.78 302.74 840.12 305.02 846.46" />
	</g>
</svg>