<svg xmlns="http://www.w3.org/2000/svg" viewBox="0 0 1068 866" width="1068" height="866">
	<style>
		tspan { white-space:pre }
		.shp0 { fill: none;stroke: #ff7f03;stroke-linecap:round;stroke-linejoin:round;stroke-width: 25.026 } 
		.shp1 { fill: none;stroke: #ff7f03;stroke-linecap:round;stroke-linejoin:round;stroke-width: 10.01 } 
		.shp2 { fill: none;stroke: #ff7f03;stroke-linecap:round;stroke-linejoin:round;stroke-width: 6.464 } 
		.shp3 { fill: none;stroke: #762efa;stroke-width: 2.772 } 
		.shp4 { fill: none;stroke: #762efa;stroke-width: 2.016 } 
		.shp5 { fill: none;stroke: #00ca73;stroke-width: 3.332 } 
		.shp6 { fill: none;stroke: #00ca73;stroke-width: 2.092 } 
		.shp7 { fill: none;stroke: #00ca73;stroke-width: 5.006 } 
		.shp8 { fill: none;stroke: #00ca73;stroke-width: 2.094 } 
		.shp9 { fill: none;stroke: #762efa;stroke-width: 1.746 } 
		.shp10 { fill: none;stroke: #ec008c;stroke-linecap:round;stroke-linejoin:round;stroke-width: 5.006 } 
		.shp11 { fill: none;stroke: #60a9dd;stroke-linecap:round;stroke-linejoin:round;stroke-width: 5.006 } 
	</style>
	<g id="bg">
		<path id="Path 2" class="shp0" d="M588.05 406.61C588.05 478.19 530.94 536.21 460.49 536.21C390.04 536.21 332.93 478.19 332.93 406.61C332.93 335.03 390.04 277 460.49 277C530.94 277 588.05 335.03 588.05 406.61Z" />
		<path id="Path 4" class="shp1" d="M702 423.81C702 465.49 668.74 499.28 627.72 499.28C586.7 499.28 553.45 465.49 553.45 423.81C553.45 382.13 586.7 348.35 627.72 348.35C668.74 348.35 702 382.13 702 423.81Z" />
		<path id="Path 5" class="shp2" d="M180.94 610.48C180.94 650.39 148.59 682.74 108.68 682.74C68.77 682.74 36.42 650.39 36.42 610.48C36.42 570.57 68.77 538.22 108.68 538.22C148.59 538.22 180.94 570.57 180.94 610.48Z" />
		<path id="Path 6" class="shp3" d="M207.96 788.79C207.96 810.89 190.05 828.81 167.95 828.81C145.85 828.81 127.93 810.89 127.93 788.79C127.93 766.69 145.85 748.77 167.95 748.77C190.05 748.77 207.96 766.69 207.96 788.79Z" />
		<path id="Path 7" class="shp4" d="M604.16 30.39C604.16 46.47 591.12 59.51 575.03 59.51C558.95 59.51 545.92 46.47 545.92 30.39C545.92 14.31 558.95 1.27 575.03 1.27C591.12 1.27 604.16 14.31 604.16 30.39Z" />
		<path id="Path 8" class="shp5" d="M169.57 420.14C169.57 430.84 160.9 439.52 150.19 439.52C139.49 439.52 130.82 430.84 130.82 420.14C130.82 409.43 139.49 400.76 150.19 400.76C160.9 400.76 169.57 409.43 169.57 420.14Z" />
		<path id="Path 9" class="shp6" d="M78.55 133.94C78.55 140.66 73.1 146.11 66.38 146.11C59.66 146.11 54.22 140.66 54.22 133.94C54.22 127.22 59.66 121.77 66.38 121.77C73.1 121.77 78.55 127.22 78.55 133.94Z" />
		<path id="Path 10" class="shp7" d="M712.32 229.25C712.32 234.6 707.98 238.94 702.63 238.94C697.28 238.94 692.94 234.6 692.94 229.25C692.94 223.9 697.28 219.56 702.63 219.56C707.98 219.56 712.32 223.9 712.32 229.25Z" />
		<path id="Path 11" class="shp8" d="M922.81 625.17C922.81 631.9 917.36 637.35 910.63 637.35C903.91 637.35 898.45 631.9 898.45 625.17C898.45 618.44 903.91 612.99 910.63 612.99C917.36 612.99 922.81 618.44 922.81 625.17Z" />
		<path id="Path 12" class="shp9" d="M978.23 374.36C978.23 388.28 966.94 399.56 953.02 399.56C939.1 399.56 927.81 388.28 927.81 374.36C927.81 360.43 939.1 349.15 953.02 349.15C966.94 349.15 978.23 360.43 978.23 374.36Z" />
		<path id="Path 13" class="shp10" d="M143.91 179.2L3.34 349.3M317.07 20.23L60.84 328.21M267.87 120.55L55.73 377.41M369.46 632.15L257.01 767.94M422.29 625.17L334.54 730.13M524.52 756.54L439.33 863.03M554.34 788.79L498.96 855.36M1064.66 511.17L826.97 799.13M1034.85 601.48L822.71 858.77" />
		<path id="Path 14" class="shp11" d="M857.21 44.72C858.76 58.18 858.88 76.01 848.69 83.06C834.85 92.63 812.03 75.34 801.84 84.76C797.93 88.38 794.96 96.75 802.26 118.84M1050.61 333.96C1055.59 359.9 1058.38 394.84 1039.11 411.28C1012.49 433.97 965.64 402.74 938.15 425.34C926.65 434.78 915.65 456.02 925.37 510.32M198.22 274.75C201.11 282.6 203.6 292.24 199.5 295.84C193.8 300.84 179.69 290.4 174.79 295.2C172.77 297.18 171.96 302.1 178.2 315.43M649.65 125.34C650.74 131.46 650.9 138.18 647.1 141.31C641.26 146.13 630.12 139.14 626.33 143.55C624.84 145.29 624.39 148.91 628.25 156.97M679.05 275.18C681.4 289.01 678.7 294.13 675.85 296.26C669.22 301.22 658.23 292.71 650.93 297.86C645.9 301.42 645.47 309.47 645.82 315.43M844.22 605.95C848.76 628.54 844.7 638.04 839.53 642.37C827.75 652.26 806.34 638.53 796.3 648.34C789.54 654.93 791.77 668.44 795.23 679.86M804.6 741.2C809.75 753.62 809.08 760.34 806.1 763.99C799.63 771.9 783.11 764.45 776.91 772.3C773.11 777.11 774.97 785.47 778.83 794.24M357.64 754.72C361.6 769.17 359.49 775.69 356.21 778.85C348.71 786.04 333.26 777.41 326.81 784.6C322.84 789.02 324.4 797.1 326.81 804.09" />
	</g>
</svg>