<svg xmlns="http://www.w3.org/2000/svg" viewBox="0 0 817 595" width="1000" height="728">
	<defs>
		<linearGradient id="grd1" gradientUnits="userSpaceOnUse"  x1="78.195" y1="294.948" x2="78.195" y2="112.944">
			<stop offset="0" stop-color="#fbcc98"  />
			<stop offset="1" stop-color="#b2926e"  />
		</linearGradient>
		<linearGradient id="grd2" gradientUnits="userSpaceOnUse"  x1="206.189" y1="663.066" x2="206.189" y2="468.189">
			<stop offset="0" stop-color="#e15136"  />
			<stop offset="1" stop-color="#a53a23"  />
		</linearGradient>
		<linearGradient id="grd3" gradientUnits="userSpaceOnUse"  x1="220.569" y1="663.004" x2="220.569" y2="470.816">
			<stop offset="0" stop-color="#c8482d"  />
			<stop offset="1" stop-color="#852d18"  />
		</linearGradient>
		<linearGradient id="grd4" gradientUnits="userSpaceOnUse"  x1="37.099" y1="512.124" x2="37.099" y2="316.381">
			<stop offset="0" stop-color="#c8482d"  />
			<stop offset="1" stop-color="#a63b25"  />
		</linearGradient>
		<linearGradient id="grd5" gradientUnits="userSpaceOnUse"  x1="451.206" y1="427.969" x2="451.206" y2="323.305">
			<stop offset="0" stop-color="#c8482d"  />
			<stop offset="1" stop-color="#99351c"  />
		</linearGradient>
		<radialGradient id="grd6" gradientUnits="userSpaceOnUse"  cx="452.084" cy="150.168" r="17.319">
			<stop offset="0" stop-color="#1c2a66"  />
			<stop offset="1" stop-color="#0a0b3b"  />
		</radialGradient>
		<linearGradient id="grd7" gradientUnits="userSpaceOnUse"  x1="410.773" y1="127.713" x2="410.773" y2="116.886">
			<stop offset="0" stop-color="#d1d3d4"  />
			<stop offset="1" stop-color="#7b7d7f"  />
		</linearGradient>
		<linearGradient id="grd8" gradientUnits="userSpaceOnUse"  x1="411.007" y1="186.243" x2="411.007" y2="120.703">
			<stop offset="0" stop-color="#283981"  />
			<stop offset="1" stop-color="#060f44"  />
		</linearGradient>
		<linearGradient id="grd9" gradientUnits="userSpaceOnUse"  x1="371.529" y1="271.253" x2="552.767" y2="232.964">
			<stop offset="0" stop-color="#f8cccb"  />
			<stop offset="1" stop-color="#c79090"  />
		</linearGradient>
		<clipPath clipPathUnits="userSpaceOnUse" id="cp1">
			<path d="M379.72 594.78L717.18 594.78L717.18 432.74L379.72 432.74L379.72 594.78Z" />
		</clipPath>
		<linearGradient id="grd10" gradientUnits="userSpaceOnUse"  x1="622.23" y1="212.49" x2="622.23" y2="21.042">
			<stop offset="0" stop-color="#47270d"  />
			<stop offset="1" stop-color="#1f1206"  />
		</linearGradient>
		<linearGradient id="grd11" gradientUnits="userSpaceOnUse"  x1="633.543" y1="147.674" x2="633.543" y2="221.728">
			<stop offset="0" stop-color="#d6a1a1"  />
			<stop offset="1" stop-color="#8f6c6c"  />
		</linearGradient>
		<linearGradient id="grd12" gradientUnits="userSpaceOnUse"  x1="562.122" y1="113.226" x2="608.301" y2="91.072">
			<stop offset="0" stop-color="#f8cccb"  />
			<stop offset="1" stop-color="#c79090"  />
		</linearGradient>
		<linearGradient id="grd13" gradientUnits="userSpaceOnUse"  x1="328.139" y1="310.521" x2="607.991" y2="268.212">
			<stop offset="0" stop-color="#f8cccb"  />
			<stop offset="1" stop-color="#c79090"  />
		</linearGradient>
		<linearGradient id="grd14" gradientUnits="userSpaceOnUse"  x1="619.715" y1="10.917" x2="743.047" y2="225.231">
			<stop offset="0" stop-color="#47270d"  />
			<stop offset="0.479" stop-color="#2e1400"  />
			<stop offset="1" stop-color="#1f1206"  />
		</linearGradient>
		<linearGradient id="grd15" gradientUnits="userSpaceOnUse"  x1="652.398" y1="601.259" x2="687.852" y2="196.012">
			<stop offset="0" stop-color="#19494e"  />
			<stop offset="1" stop-color="#103d42"  />
		</linearGradient>
		<linearGradient id="grd16" gradientUnits="userSpaceOnUse"  x1="622.613" y1="596.308" x2="650.234" y2="280.598">
			<stop offset="0" stop-color="#0e3b40"  />
			<stop offset="1" stop-color="#00282c"  />
		</linearGradient>
	</defs>
	<style>
		tspan { white-space:pre }
		.shp0 { fill: url(#grd1) } 
		.shp1 { fill: #f0d9b7 } 
		.shp2 { fill: #e67b83 } 
		.shp3 { fill: #fce4ca } 
		.shp4 { fill: #6b584a } 
		.shp5 { fill: url(#grd2) } 
		.shp6 { fill: url(#grd3) } 
		.shp7 { fill: url(#grd4) } 
		.shp8 { fill: url(#grd5) } 
		.shp9 { fill: #c43b31 } 
		.shp10 { fill: #e15136 } 
		.shp11 { fill: #768f94 } 
		.shp12 { fill: #93b0b7 } 
		.shp13 { fill: #b6cbce } 
		.shp14 { fill: #58595b } 
		.shp15 { fill: #636466 } 
		.shp16 { fill: #ffffff } 
		.shp17 { fill: #464042 } 
		.shp18 { fill: #fffefd } 
		.shp19 { fill: none;stroke: #fffefd;stroke-width: 0.432 } 
		.shp20 { fill: #ee4236 } 
		.shp21 { fill: #8292c3 } 
		.shp22 { fill: #c4bcba } 
		.shp23 { fill: #abd356 } 
		.shp24 { fill: #f7e052 } 
		.shp25 { fill: #5ebcbb } 
		.shp26 { fill: #f43b38 } 
		.shp27 { mix-blend-mode: multiply;fill: #c6c6c6 } 
		.shp28 { fill: #f7a9af } 
		.shp29 { fill: #f9bfb6 } 
		.shp30 { fill: #fdb913 } 
		.shp31 { fill: url(#grd6) } 
		.shp32 { fill: url(#grd7) } 
		.shp33 { fill: url(#grd8) } 
		.shp34 { fill: #f48222 } 
		.shp35 { fill: url(#grd9) } 
		.shp36 { fill: #829ba7 } 
		.shp37 { fill: #93afbc } 
		.shp38 { fill: #f89d1e } 
		.shp39 { fill: url(#grd10) } 
		.shp40 { fill: url(#grd11) } 
		.shp41 { fill: url(#grd12) } 
		.shp42 { fill: url(#grd13) } 
		.shp43 { fill: url(#grd14) } 
		.shp44 { fill: url(#grd15) } 
		.shp45 { fill: url(#grd16) } 
	</style>
	<g id="w/o bg">
		<path id="Path 14" class="shp0" d="M127.26 113.44C120.61 118.59 115.67 125.95 113.51 134.09C101.65 132.74 89.55 133.48 77.94 136.28C74.37 137.15 70.78 138.21 67.1 138.2C63.42 138.18 59.52 136.9 57.36 133.92C55.38 131.21 55.12 127.57 54.22 124.33C53.6 122.12 50.49 121.94 49.62 124.06C43.06 139.9 42.09 158.02 47.05 174.44C48.08 177.85 49.36 181.2 50.13 184.68C51.95 192.89 50.88 201.43 49.81 209.76C48.13 222.78 46.45 235.8 44.78 248.82C44.04 254.51 43.25 260.38 40.3 265.3C39.67 266.36 38.93 267.38 38.18 268.4C36.55 269.27 34.91 270.12 33.17 270.62C28.48 271.98 23.23 270.7 19.37 267.72C15.5 264.74 12.99 260.21 11.98 255.44C11.06 251.13 11.36 246.44 13.5 242.6C13.84 242 14.22 241.43 14.64 240.89C16.27 238.81 13.93 235.94 11.51 237.01C10.42 237.49 9.37 238.08 8.4 238.77C3.87 241.94 0.87 247.21 0.45 252.72C0.22 255.75 0.72 258.79 1.43 261.74C3.56 270.59 8.4 279.78 17.01 282.75C19.81 283.71 22.82 283.93 25.78 283.9C27.86 283.88 29.98 283.71 32.05 283.33C32.07 284.3 32.24 285.27 32.62 286.15C34.06 289.56 37.41 291.79 40.87 293.11C47.21 295.52 54.2 295.43 60.96 294.98C93.31 292.85 125.13 283.13 153.15 266.82C154.07 266.29 155.02 265.71 155.56 264.8C156.32 263.51 156.09 261.89 155.79 260.42C153.16 247.3 147.64 234.94 141.59 223C139.17 218.22 136.66 213.49 134.06 208.81C133.3 207.44 132.52 206.04 132.3 204.48C132.03 202.55 132.65 200.62 133.16 198.74C135.31 190.85 135.57 182.46 133.92 174.45C133.02 170.08 131.56 165.81 131.1 161.37C130.63 156.85 131.21 152.29 131.61 147.76C132.55 136.89 132.39 125.93 131.13 115.09C130.98 113.8 129.85 112.94 128.69 112.94C128.2 112.94 127.7 113.1 127.26 113.44Z" />
		<path id="Path 15" class="shp1" d="M123.84 190.65C123.83 189.99 123.61 189.35 123.32 188.75C122.01 186.07 119.31 184.21 116.4 183.55C113.49 182.88 110.41 183.32 107.61 184.35C105.3 185.2 103.07 186.53 101.72 188.58C101.21 189.35 100.84 190.2 100.47 191.04C100 192.14 99.52 193.24 99.04 194.34C98.94 194.58 98.83 194.83 98.9 195.08C98.97 195.32 99.29 195.5 99.48 195.34L98.79 195.87C99.83 197.37 101.5 198.32 103.2 199C107.52 200.7 112.41 200.92 116.86 199.59C118.34 199.15 119.81 198.51 120.91 197.43C122.2 196.14 122.85 194.36 123.43 192.63C123.64 191.99 123.85 191.33 123.84 190.65Z" />
		<path id="Path 16" class="shp2" d="M119.8 186.81C119.72 186.36 119.49 185.95 119.23 185.58C118.02 183.9 115.96 182.95 113.89 182.84C111.83 182.73 109.78 183.39 107.99 184.42C106.52 185.27 105.15 186.44 104.47 188C104.21 188.58 104.06 189.2 103.91 189.83C103.71 190.63 103.51 191.44 103.31 192.24C103.27 192.42 103.23 192.6 103.31 192.76C103.38 192.92 103.62 193.01 103.73 192.87L103.32 193.32C104.21 194.22 105.46 194.67 106.7 194.93C109.85 195.59 113.21 195.16 116.09 193.73C117.05 193.26 117.98 192.65 118.6 191.78C119.33 190.75 119.57 189.46 119.75 188.21C119.83 187.75 119.89 187.27 119.8 186.81Z" />
		<path id="Path 17" class="shp3" d="M128.82 176.33C128.41 173.6 127.72 170.82 126.05 168.62C123.73 165.54 119.86 164.05 116.07 163.36C102.92 160.96 89.68 166.57 77.97 173.01C74.79 174.76 71.25 177.21 71.17 180.84L71.43 181.37C74.03 189.44 82.12 194.71 90.4 196.56C94.83 197.55 99.57 197.73 103.82 196.11C108.06 194.49 111.69 190.83 112.42 186.35C114.77 190.36 120.17 191.15 124.82 191.14C125.69 191.14 126.59 191.12 127.34 190.69C128.73 189.9 129.08 188.07 129.2 186.47C129.44 183.09 129.32 179.68 128.82 176.33Z" />
		<path id="Path 18" class="shp4" d="M119.52 177.22C119.13 176.31 117.95 176.12 116.97 176.09C111.94 175.93 106.88 176.76 102.16 178.51C101.08 178.91 99.8 179.76 100.11 180.87L100.01 181.03C102.38 182.75 105.03 184.07 107.83 184.92C109.36 185.39 110.99 185.71 112.55 185.37C115.4 184.74 117.28 182.1 118.88 179.67C119.36 178.93 119.86 178.03 119.52 177.22Z" />
		<path id="Path 19" class="shp2" d="M55.66 134.47C54.39 131.72 53.68 128.63 53.6 125.52C53.27 124.95 52.47 125.02 52.03 125.48C51.59 125.94 51.42 126.65 51.27 127.32C50.18 132.34 49.56 137.51 49.42 142.69C49.41 142.92 49.41 143.18 49.52 143.37C49.66 143.59 49.91 143.67 50.14 143.71C53.24 144.3 56.19 142.15 58.79 140.11C59.21 139.79 59.67 139.37 59.67 138.79C59.67 138.79 56.6 136.49 55.66 134.47ZM128.68 119.34C128.68 118.54 128.57 117.57 127.85 117.23C123.88 122.21 121.14 128.17 119.94 134.42C122.55 135.22 125.25 135.7 127.97 135.83C128.24 135.84 128.56 135.83 128.7 135.6C128.79 135.47 128.79 135.3 128.79 135.15C128.76 129.88 128.72 124.61 128.68 119.34Z" />
		<path id="Path 20" class="shp5" d="M172.61 468.71L174.18 470.89C175.08 481.67 175.98 492.46 176.88 503.25C178.94 527.92 180.99 552.6 184.25 577.14C185.04 583.06 185.9 588.97 186.82 594.87L235.55 594.87C234.93 586.37 234.31 577.88 233.69 569.38L232.05 546.93C230.29 522.77 228.53 498.61 226.76 474.44C226.7 473.61 226.61 472.7 226.05 472.08C225.46 471.42 224.51 471.26 223.63 471.16C217.21 470.44 210.57 471 203.97 471.55C193.2 472.47 182.56 473.38 173.22 468.71L172.61 468.71Z" />
		<path id="Path 21" class="shp6" d="M200.99 471.8C201.18 472.08 201.36 472.36 201.59 472.6L202.38 473.95C203.65 514.34 206.39 554.68 210.55 594.87L235.55 594.87C234.93 586.37 234.31 577.88 233.69 569.38L232.05 546.93C230.29 522.77 228.53 498.61 226.76 474.44C226.7 473.61 226.61 472.7 226.05 472.08C225.46 471.42 224.51 471.26 223.63 471.16C221.45 470.91 219.23 470.82 217.01 470.82C211.71 470.82 206.32 471.37 200.99 471.8Z" />
		<path id="Path 22" class="shp7" d="M26.65 510.84C38.38 511.26 50.12 511.7 61.86 512.13C55.41 456.71 51.35 401.02 49.69 345.26L48.74 350.39C44.37 333.41 29.57 319.59 12.34 316.38C12.47 381.43 17.26 446.47 26.65 510.84Z" />
		<path id="Path 23" class="shp8" d="M468.3 323.77C457.22 326.52 446.9 332.31 438.78 340.34C437.77 341.33 436.78 342.39 436.2 343.68C435.53 345.19 435.47 346.89 435.43 348.55C434.72 374.17 434.01 399.8 433.3 425.42C445.21 425.84 457.1 426.69 468.94 427.97C469.59 393.08 469.47 358.19 468.57 323.31L468.3 323.77Z" />
		<path id="Path 24" class="shp9" d="M595.84 257.33C595.84 257.28 595.84 257.22 595.84 257.16C595.46 240.32 579.16 228.89 564.58 220.45C534.95 203.29 499.53 176.07 469.39 159.82C461.58 155.62 453.57 151.38 444.82 149.91C434.57 148.19 424.11 150.41 413.96 152.64C320.42 173.28 225.36 213.58 133.34 240.17C93.16 251.78 52.89 264.06 15.66 283.11C12.5 284.72 9.07 286.74 8.14 290.17C8.02 290.64 7.96 291.12 7.93 291.59C7.92 291.66 7.93 291.72 7.93 291.79C7.92 291.86 7.93 291.92 7.93 291.99C7.92 292.05 7.93 292.12 7.93 292.19C7.92 292.25 7.93 292.32 7.93 292.38C7.92 292.45 7.93 292.52 7.93 292.58C7.92 292.65 7.93 292.71 7.93 292.78C7.92 292.85 7.93 292.91 7.93 292.98C7.92 293.04 7.93 293.11 7.93 293.18C7.92 293.24 7.93 293.31 7.93 293.38C7.92 293.44 7.93 293.51 7.93 293.57C7.92 293.64 7.93 293.71 7.93 293.77C7.92 293.84 7.93 293.9 7.93 293.97C7.92 294.04 7.93 294.1 7.93 294.17C7.92 294.23 7.93 294.3 7.93 294.37C7.92 294.43 7.93 294.5 7.93 294.56C7.92 294.63 7.93 294.7 7.93 294.76C7.92 294.83 7.93 294.89 7.93 294.96C7.92 295.03 7.93 295.09 7.93 295.16C7.92 295.22 7.93 295.29 7.93 295.36C7.92 295.42 7.93 295.49 7.93 295.55C7.92 295.62 7.93 295.69 7.93 295.75C7.92 295.82 7.93 295.88 7.93 295.95C7.92 296.02 7.93 296.08 7.93 296.15C7.92 296.21 7.93 296.28 7.93 296.35C7.92 296.41 7.93 296.48 7.93 296.54C7.92 296.61 7.93 296.68 7.93 296.74C7.92 296.81 7.93 296.87 7.93 296.94C7.92 297.01 7.93 297.07 7.93 297.14C7.92 297.2 7.93 297.27 7.93 297.34C7.92 297.4 7.93 297.47 7.93 297.53C7.92 297.6 7.93 297.67 7.93 297.73C7.92 297.8 7.93 297.86 7.93 297.93C7.92 298 7.93 298.06 7.93 298.13C7.92 298.19 7.93 298.26 7.93 298.33C7.92 298.39 7.93 298.46 7.93 298.52C7.92 298.59 7.93 298.66 7.93 298.72C7.92 298.79 7.93 298.85 7.93 298.92C7.92 298.99 7.93 299.05 7.93 299.12C7.92 299.18 7.93 299.25 7.93 299.32C7.92 299.38 7.93 299.45 7.93 299.51C7.92 299.58 7.93 299.65 7.93 299.71C7.92 299.78 7.93 299.84 7.93 299.91C7.92 299.98 7.93 300.04 7.93 300.11C7.92 300.17 7.93 300.24 7.93 300.31C7.92 300.37 7.93 300.44 7.93 300.5C7.92 300.57 7.93 300.64 7.93 300.7C7.92 300.77 7.93 300.83 7.93 300.9C7.92 300.97 7.93 301.03 7.93 301.1C7.92 301.16 7.93 301.23 7.93 301.3C7.92 301.36 7.93 301.43 7.93 301.49C7.92 301.56 7.93 301.63 7.93 301.69C7.92 301.76 7.93 301.82 7.93 301.89C7.92 301.96 7.93 302.02 7.93 302.09C7.92 302.15 7.93 302.22 7.93 302.29C7.92 302.35 7.93 302.42 7.93 302.48C7.92 302.55 7.93 302.62 7.93 302.68C7.92 302.75 7.93 302.81 7.93 302.88C7.92 302.95 7.93 303.01 7.93 303.08C7.92 303.14 7.93 303.21 7.93 303.28C7.92 303.34 7.93 303.41 7.93 303.47C7.92 303.54 7.93 303.61 7.93 303.67C7.92 303.74 7.93 303.8 7.93 303.87C7.92 303.94 7.93 304 7.93 304.07C7.92 304.13 7.93 304.2 7.93 304.27C7.92 304.33 7.93 304.4 7.93 304.46C7.92 304.53 7.93 304.6 7.93 304.66C7.92 304.73 7.93 304.79 7.93 304.86C7.92 304.93 7.93 304.99 7.93 305.06C7.92 305.13 7.93 305.19 7.93 305.26C7.92 305.32 7.93 305.39 7.93 305.46C7.92 305.52 7.93 305.59 7.93 305.65C7.92 305.72 7.93 305.79 7.93 305.85C7.92 305.92 7.93 305.98 7.93 306.05C7.92 306.12 7.93 306.18 7.93 306.25C7.92 306.31 7.93 306.38 7.93 306.45C7.92 306.51 7.93 306.58 7.93 306.64C7.92 306.71 7.93 306.78 7.93 306.84C7.92 306.91 7.93 306.97 7.93 307.04C7.92 307.11 7.93 307.17 7.93 307.24C7.92 307.3 7.93 307.37 7.93 307.44C7.92 307.5 7.93 307.57 7.93 307.63C7.92 307.7 7.93 307.77 7.93 307.83C7.92 307.9 7.93 307.96 7.93 308.03C7.92 308.1 7.93 308.16 7.93 308.23C7.92 308.29 7.93 308.36 7.93 308.43C7.92 308.49 7.93 308.56 7.93 308.62C7.92 308.69 7.93 308.76 7.93 308.82C7.92 308.89 7.93 308.95 7.93 309.02C7.92 309.09 7.93 309.15 7.93 309.22C7.92 309.28 7.93 309.35 7.93 309.42C7.92 309.48 7.93 309.55 7.93 309.61C7.92 309.68 7.93 309.75 7.93 309.81C7.92 309.88 7.93 309.94 7.93 310.01C7.92 310.08 7.93 310.14 7.93 310.21C7.92 310.27 7.93 310.34 7.93 310.41C7.92 310.47 7.93 310.54 7.93 310.6C7.92 310.67 7.93 310.74 7.93 310.8C7.92 310.87 7.93 310.93 7.93 311C7.92 311.07 7.93 311.13 7.93 311.2C7.92 311.26 7.93 311.33 7.93 311.4C7.69 314.28 9.24 317.17 10.86 319.66C16.34 328.11 23.26 335.62 31.22 341.77C31.22 341.77 111.09 423.29 147.09 457.64C162.14 471.99 178.99 487.09 199.73 488.59C212.86 489.53 225.65 484.79 237.92 480.01C346.78 437.62 451.62 365.06 558.01 316.81C575.7 308.79 596.28 296.57 595.84 277.16C595.84 277.15 595.84 277.14 595.84 277.13C595.84 277.08 595.84 277.02 595.84 276.96C595.84 276.95 595.84 276.95 595.84 276.94C595.84 276.88 595.84 276.82 595.84 276.76C595.84 276.76 595.84 276.75 595.84 276.74C595.84 276.68 595.84 276.63 595.84 276.56C595.84 276.56 595.84 276.55 595.84 276.54C595.84 276.48 595.84 276.43 595.84 276.37C595.84 276.36 595.84 276.35 595.84 276.34C595.84 276.29 595.84 276.23 595.84 276.17C595.84 276.16 595.84 276.15 595.84 276.15C595.84 276.09 595.84 276.03 595.84 275.97C595.84 275.96 595.84 275.96 595.84 275.95C595.84 275.89 595.84 275.83 595.84 275.77C595.84 275.77 595.84 275.76 595.84 275.75C595.84 275.69 595.84 275.63 595.84 275.57C595.84 275.57 595.84 275.56 595.84 275.55C595.84 275.49 595.84 275.44 595.84 275.38C595.84 275.37 595.84 275.36 595.84 275.35C595.84 275.29 595.84 275.24 595.84 275.18C595.84 275.17 595.84 275.16 595.84 275.16C595.84 275.1 595.84 275.04 595.84 274.98C595.84 274.97 595.84 274.96 595.84 274.96C595.84 274.9 595.84 274.84 595.84 274.78C595.84 274.78 595.84 274.77 595.84 274.76C595.84 274.7 595.84 274.64 595.84 274.59C595.84 274.58 595.84 274.57 595.84 274.56C595.84 274.5 595.84 274.45 595.84 274.39C595.84 274.38 595.84 274.37 595.84 274.36C595.84 274.3 595.84 274.25 595.84 274.19C595.84 274.18 595.84 274.17 595.84 274.17C595.84 274.11 595.84 274.05 595.84 273.99C595.84 273.98 595.84 273.97 595.84 273.97C595.84 273.91 595.84 273.85 595.84 273.79C595.84 273.79 595.84 273.78 595.84 273.77C595.84 273.71 595.84 273.65 595.84 273.6C595.84 273.59 595.84 273.58 595.84 273.57C595.84 273.51 595.84 273.46 595.84 273.4C595.84 273.39 595.84 273.38 595.84 273.37C595.84 273.31 595.84 273.26 595.84 273.2C595.84 273.19 595.84 273.18 595.84 273.18C595.84 273.12 595.84 273.06 595.84 273C595.84 272.99 595.84 272.98 595.84 272.98C595.84 272.92 595.84 272.86 595.84 272.8C595.84 272.79 595.84 272.79 595.84 272.78C595.84 272.72 595.84 272.66 595.84 272.61C595.84 272.6 595.84 272.59 595.84 272.58C595.84 272.52 595.84 272.46 595.84 272.41C595.84 272.4 595.84 272.39 595.84 272.38C595.84 272.32 595.84 272.27 595.84 272.21C595.84 272.2 595.84 272.19 595.84 272.19C595.84 272.13 595.84 272.07 595.84 272.01C595.84 272 595.84 272 595.84 271.99C595.84 271.93 595.84 271.87 595.84 271.81C595.84 271.8 595.84 271.8 595.84 271.79C595.84 271.73 595.84 271.67 595.84 271.62C595.84 271.61 595.84 271.6 595.84 271.59C595.84 271.53 595.84 271.47 595.84 271.42C595.84 271.41 595.84 271.4 595.84 271.39C595.84 271.33 595.84 271.28 595.84 271.22C595.84 271.21 595.84 271.2 595.84 271.2C595.84 271.14 595.84 271.08 595.84 271.02C595.84 271.01 595.84 271.01 595.84 271C595.84 270.94 595.84 270.88 595.84 270.82C595.84 270.81 595.84 270.81 595.84 270.8C595.84 270.74 595.84 270.68 595.84 270.63C595.84 270.62 595.84 270.61 595.84 270.6C595.84 270.54 595.84 270.49 595.84 270.43C595.84 270.42 595.84 270.41 595.84 270.4C595.84 270.34 595.84 270.29 595.84 270.23C595.84 270.22 595.84 270.21 595.84 270.21C595.84 270.15 595.84 270.09 595.84 270.03C595.84 270.02 595.84 270.02 595.84 270.01C595.84 269.95 595.84 269.89 595.84 269.83C595.84 269.82 595.84 269.82 595.84 269.81C595.84 269.75 595.84 269.69 595.84 269.63C595.84 269.63 595.84 269.62 595.84 269.61C595.84 269.55 595.84 269.5 595.84 269.44C595.84 269.43 595.84 269.42 595.84 269.41C595.84 269.35 595.84 269.3 595.84 269.24C595.84 269.23 595.84 269.22 595.84 269.21C595.84 269.16 595.84 269.1 595.84 269.04C595.84 269.03 595.84 269.03 595.84 269.02C595.84 268.96 595.84 268.9 595.84 268.84C595.84 268.83 595.84 268.83 595.84 268.82C595.84 268.76 595.84 268.7 595.84 268.64C595.84 268.64 595.84 268.63 595.84 268.62C595.84 268.56 595.84 268.51 595.84 268.45C595.84 268.44 595.84 268.43 595.84 268.42C595.84 268.36 595.84 268.31 595.84 268.25C595.84 268.24 595.84 268.23 595.84 268.22C595.84 268.17 595.84 268.11 595.84 268.05C595.84 268.04 595.84 268.04 595.84 268.03C595.84 267.97 595.84 267.91 595.84 267.85C595.84 267.84 595.84 267.84 595.84 267.83C595.84 267.77 595.84 267.71 595.84 267.65C595.84 267.65 595.84 267.64 595.84 267.63C595.84 267.57 595.84 267.52 595.84 267.46C595.84 267.45 595.84 267.44 595.84 267.43C595.84 267.37 595.84 267.32 595.84 267.26C595.84 267.25 595.84 267.24 595.84 267.23C595.84 267.18 595.84 267.12 595.84 267.06C595.84 267.05 595.84 267.04 595.84 267.04C595.84 266.98 595.84 266.92 595.84 266.86C595.84 266.85 595.84 266.85 595.84 266.84C595.84 266.78 595.84 266.72 595.84 266.66C595.84 266.66 595.84 266.65 595.84 266.64C595.84 266.58 595.84 266.53 595.84 266.47C595.84 266.46 595.84 266.45 595.84 266.44C595.84 266.38 595.84 266.33 595.84 266.27C595.84 266.26 595.84 266.25 595.84 266.24C595.84 266.19 595.84 266.13 595.84 266.07C595.84 266.06 595.84 266.05 595.84 266.05C595.84 265.99 595.84 265.93 595.84 265.87C595.84 265.86 595.84 265.86 595.84 265.85C595.84 265.79 595.84 265.73 595.84 265.67C595.84 265.67 595.84 265.66 595.84 265.65C595.84 265.59 595.84 265.54 595.84 265.48C595.84 265.47 595.84 265.46 595.84 265.45C595.84 265.39 595.84 265.34 595.84 265.28C595.84 265.27 595.84 265.26 595.84 265.25C595.84 265.2 595.84 265.14 595.84 265.08C595.84 265.07 595.84 265.06 595.84 265.06C595.84 265 595.84 264.94 595.84 264.88C595.84 264.87 595.84 264.87 595.84 264.86C595.84 264.8 595.84 264.74 595.84 264.68C595.84 264.68 595.84 264.67 595.84 264.66C595.84 264.6 595.84 264.54 595.84 264.49C595.84 264.48 595.84 264.47 595.84 264.46C595.84 264.4 595.84 264.35 595.84 264.29C595.84 264.28 595.84 264.27 595.84 264.26C595.84 264.21 595.84 264.15 595.84 264.09C595.84 264.08 595.84 264.07 595.84 264.07C595.84 264.01 595.84 263.95 595.84 263.89C595.84 263.88 595.84 263.88 595.84 263.87C595.84 263.81 595.84 263.75 595.84 263.69C595.84 263.69 595.84 263.68 595.84 263.67C595.84 263.61 595.84 263.55 595.84 263.5C595.84 263.49 595.84 263.48 595.84 263.47C595.84 263.41 595.84 263.36 595.84 263.3C595.84 263.29 595.84 263.28 595.84 263.27C595.84 263.21 595.84 263.16 595.84 263.1C595.84 263.09 595.84 263.08 595.84 263.08C595.84 263.02 595.84 262.96 595.84 262.9C595.84 262.89 595.84 262.89 595.84 262.88C595.84 262.82 595.84 262.76 595.84 262.7C595.84 262.7 595.84 262.69 595.84 262.68C595.84 262.62 595.84 262.56 595.84 262.51C595.84 262.5 595.84 262.49 595.84 262.48C595.84 262.42 595.84 262.37 595.84 262.31C595.84 262.3 595.84 262.29 595.84 262.28C595.84 262.22 595.84 262.17 595.84 262.11C595.84 262.1 595.84 262.09 595.84 262.09C595.84 262.03 595.84 261.97 595.84 261.91C595.84 261.9 595.84 261.9 595.84 261.89C595.84 261.83 595.84 261.77 595.84 261.71C595.84 261.71 595.84 261.7 595.84 261.69C595.84 261.63 595.84 261.57 595.84 261.52C595.84 261.51 595.84 261.5 595.84 261.49C595.84 261.43 595.84 261.38 595.84 261.32C595.84 261.31 595.84 261.3 595.84 261.29C595.84 261.24 595.84 261.18 595.84 261.12C595.84 261.11 595.84 261.1 595.84 261.1C595.84 261.04 595.84 260.98 595.84 260.92C595.84 260.91 595.84 260.91 595.84 260.9C595.84 260.84 595.84 260.78 595.84 260.72C595.84 260.71 595.84 260.71 595.84 260.7C595.84 260.64 595.84 260.58 595.84 260.53C595.84 260.52 595.84 260.51 595.84 260.5C595.84 260.44 595.84 260.39 595.84 260.33C595.84 260.32 595.84 260.31 595.84 260.3C595.84 260.25 595.84 260.19 595.84 260.13C595.84 260.12 595.84 260.11 595.84 260.11C595.84 260.05 595.84 259.99 595.84 259.93C595.84 259.92 595.84 259.92 595.84 259.91C595.84 259.85 595.84 259.79 595.84 259.73C595.84 259.72 595.84 259.72 595.84 259.71C595.84 259.65 595.84 259.59 595.84 259.54C595.84 259.53 595.84 259.52 595.84 259.51C595.84 259.45 595.84 259.4 595.84 259.34C595.84 259.33 595.84 259.32 595.84 259.31C595.84 259.26 595.84 259.2 595.84 259.14C595.84 259.13 595.84 259.12 595.84 259.12C595.84 259.06 595.84 259 595.84 258.94C595.84 258.93 595.84 258.93 595.84 258.92C595.84 258.86 595.84 258.8 595.84 258.74C595.84 258.73 595.84 258.73 595.84 258.72C595.84 258.66 595.84 258.6 595.84 258.54C595.84 258.54 595.84 258.53 595.84 258.52C595.84 258.46 595.84 258.41 595.84 258.35C595.84 258.34 595.84 258.33 595.84 258.32C595.84 258.27 595.84 258.21 595.84 258.15C595.84 258.14 595.84 258.13 595.84 258.13C595.84 258.07 595.84 258.01 595.84 257.95C595.84 257.94 595.84 257.94 595.84 257.93C595.84 257.87 595.84 257.81 595.84 257.75C595.84 257.75 595.84 257.74 595.84 257.73C595.84 257.67 595.84 257.61 595.84 257.55C595.84 257.55 595.84 257.54 595.84 257.53C595.84 257.47 595.84 257.42 595.84 257.36C595.84 257.35 595.84 257.34 595.84 257.33Z" />
		<path id="Path 25" class="shp10" d="M564.58 220.45C534.95 203.3 499.53 176.07 469.39 159.83C461.58 155.62 453.57 151.38 444.82 149.91C434.57 148.19 424.11 150.41 413.96 152.65C320.42 173.28 225.36 213.58 133.34 240.17C93.16 251.78 52.89 264.06 15.66 283.11C12.5 284.72 9.07 286.74 8.14 290.17C7.26 293.44 9.01 296.82 10.86 299.66C16.34 308.11 23.26 315.62 31.22 321.77C31.22 321.77 111.09 403.29 147.09 437.64C162.14 451.99 178.99 467.09 199.73 468.59C212.86 469.53 225.65 464.79 237.92 460.01C346.78 417.62 451.62 345.06 558.01 296.81C575.7 288.79 596.28 276.57 595.84 257.16C595.46 240.32 579.16 228.89 564.58 220.45Z" />
		<path id="Path 26" class="shp3" d="M91.95 248.79C89.26 246 86.29 243.11 82.48 242.35C80.2 241.9 77.76 242.29 75.73 243.44L73.86 244.12C70.75 248.17 68.19 253.61 70.35 258.25C71.26 260.22 72.92 261.74 74.63 263.07C77.12 265 79.81 266.65 82.66 267.98C84.97 269.06 87.44 269.95 89.99 270.04C92.54 270.12 95.22 269.33 96.97 267.47C99.43 264.87 99.58 260.71 98.27 257.38C96.95 254.05 94.44 251.36 91.95 248.79ZM148.2 230.9C145.05 229.12 141.3 228.84 137.69 228.81C134.65 228.77 131.02 229.24 129.68 231.96C129.68 231.96 125.73 235.53 125.2 238.13C124.49 241.57 125.64 245.24 127.81 248.01C129.98 250.78 133.07 252.72 136.34 254.01C139.42 255.22 142.79 255.89 146.05 255.34C149.31 254.78 152.44 252.86 153.91 249.89C154.52 248.65 154.83 247.28 154.98 245.91C155.65 240.13 153.27 233.76 148.2 230.9Z" />
		<path id="Path 27" class="shp11" d="M413.07 244.8C399.43 237.97 374.4 233.51 362.13 224.45C359.39 222.44 356.68 220.35 354.47 217.76C350.09 212.64 348.04 205.98 346.1 199.52C340.77 181.79 330.99 151.01 325.66 133.28C325.13 131.5 324.43 129.53 322.77 128.72C321.93 128.31 320.96 128.08 320.04 128.23C270.43 136.64 236.35 148.57 191.28 156.25C189.18 156.6 186.85 157.13 185.51 158.68C185.49 158.7 185.48 158.71 185.47 158.72C185.45 158.74 185.44 158.75 185.43 158.76C185.41 158.78 185.4 158.79 185.39 158.8C185.37 158.82 185.36 158.83 185.35 158.84C185.34 158.86 185.32 158.87 185.31 158.88C185.3 158.9 185.28 158.91 185.27 158.92C185.26 158.93 185.24 158.95 185.23 158.96C185.22 158.97 185.2 158.99 185.19 159C185.18 159.01 185.16 159.03 185.15 159.04C185.14 159.05 185.12 159.07 185.11 159.08C185.1 159.09 185.08 159.1 185.07 159.12C185.06 159.13 185.04 159.14 185.03 159.16C185.02 159.17 185 159.18 184.99 159.2C184.98 159.21 184.96 159.22 184.95 159.24C184.94 159.25 184.92 159.26 184.91 159.28C184.9 159.29 184.88 159.3 184.87 159.32C184.86 159.33 184.85 159.34 184.83 159.36C184.82 159.37 184.81 159.38 184.79 159.4C184.78 159.41 184.77 159.42 184.75 159.44C184.74 159.45 184.73 159.46 184.71 159.48C184.7 159.49 184.69 159.5 184.67 159.51C184.66 159.53 184.65 159.54 184.63 159.55C184.62 159.57 184.61 159.58 184.6 159.59C184.58 159.61 184.57 159.62 184.56 159.63C184.54 159.65 184.53 159.66 184.52 159.67C184.5 159.69 184.49 159.7 184.48 159.71C184.46 159.73 184.45 159.74 184.44 159.75C184.42 159.77 184.41 159.78 184.4 159.79C184.38 159.81 184.37 159.82 184.36 159.83C184.35 159.85 184.33 159.86 184.32 159.87C184.31 159.89 184.29 159.9 184.28 159.91C184.27 159.92 184.25 159.94 184.24 159.95C184.23 159.97 184.21 159.98 184.2 159.99C184.19 160 184.17 160.02 184.16 160.03C184.15 160.04 184.13 160.06 184.12 160.07C184.11 160.08 184.09 160.09 184.08 160.11C184.07 160.12 184.05 160.13 184.04 160.15C184.03 160.16 184.01 160.17 184 160.19C183.99 160.2 183.97 160.21 183.96 160.23C183.95 160.24 183.93 160.25 183.92 160.27C183.91 160.28 183.89 160.29 183.88 160.31C183.87 160.32 183.86 160.33 183.84 160.35C183.83 160.36 183.82 160.37 183.8 160.39C183.79 160.4 183.78 160.41 183.76 160.43C183.75 160.44 183.74 160.45 183.72 160.47C183.71 160.48 183.7 160.49 183.68 160.51C183.67 160.52 183.66 160.53 183.64 160.55C183.63 160.56 183.62 160.57 183.61 160.58C183.59 160.6 183.58 160.61 183.57 160.62C183.55 160.64 183.54 160.65 183.53 160.66C183.51 160.68 183.5 160.69 183.49 160.7C183.47 160.72 183.46 160.73 183.45 160.74C183.43 160.76 183.42 160.77 183.41 160.78C183.39 160.8 183.38 160.81 183.37 160.82C183.36 160.84 183.34 160.85 183.33 160.86C183.32 160.88 183.3 160.89 183.29 160.9C183.28 160.92 183.26 160.93 183.25 160.94C183.24 160.96 183.22 160.97 183.21 160.98C183.2 160.99 183.18 161.01 183.17 161.02C183.16 161.03 183.14 161.05 183.13 161.06C183.12 161.07 183.1 161.09 183.09 161.1C183.08 161.11 183.06 161.13 183.05 161.14C183.04 161.15 183.02 161.16 183.01 161.18C183 161.19 182.98 161.2 182.97 161.22C182.96 161.23 182.94 161.24 182.93 161.26C182.92 161.27 182.9 161.28 182.89 161.3C182.88 161.31 182.86 161.32 182.85 161.34C182.84 161.35 182.82 161.36 182.81 161.38C182.8 161.39 182.79 161.4 182.77 161.42C182.76 161.43 182.75 161.44 182.73 161.46C182.72 161.47 182.71 161.48 182.69 161.5C182.68 161.51 182.67 161.52 182.65 161.54C182.64 161.55 182.63 161.56 182.61 161.57C182.6 161.59 182.59 161.6 182.57 161.61C182.56 161.63 182.55 161.64 182.54 161.65C182.52 161.67 182.51 161.68 182.5 161.69C182.48 161.71 182.47 161.72 182.46 161.73C182.44 161.75 182.43 161.76 182.42 161.77C182.4 161.79 182.39 161.8 182.38 161.81C182.36 161.83 182.35 161.84 182.34 161.85C182.32 161.87 182.31 161.88 182.3 161.89C182.29 161.91 182.27 161.92 182.26 161.93C182.25 161.95 182.23 161.96 182.22 161.97C182.21 161.98 182.19 162 182.18 162.01C182.17 162.02 182.15 162.04 182.14 162.05C182.13 162.06 182.11 162.08 182.1 162.09C182.09 162.1 182.07 162.11 182.06 162.13C182.05 162.14 182.03 162.15 182.02 162.17C182.01 162.18 181.99 162.19 181.98 162.21C181.97 162.22 181.95 162.23 181.94 162.25C181.93 162.26 181.91 162.27 181.9 162.29C181.89 162.3 181.87 162.31 181.86 162.33C181.85 162.34 181.84 162.35 181.82 162.37C181.81 162.38 181.8 162.39 181.78 162.41C181.77 162.42 181.76 162.43 181.74 162.45C181.73 162.46 181.72 162.47 181.7 162.49C181.69 162.5 181.68 162.51 181.66 162.53C181.65 162.54 181.64 162.55 181.62 162.56C181.61 162.58 181.6 162.59 181.59 162.6C181.57 162.62 181.56 162.63 181.55 162.64C181.34 162.88 181.15 163.13 181 163.41C180 165.19 180.45 167.41 180.94 169.4C181.78 172.9 182.63 176.39 183.48 179.89C188.27 202.7 191.55 219.64 199.63 241.78C201.17 246.01 202.8 250.28 205.55 253.84C209.16 258.54 214.42 261.65 219.55 264.64C226.2 268.52 232.85 272.41 239.5 276.29C257.27 286.66 278.18 301.94 297.31 309.5C305.99 312.93 315.28 315.81 324.54 314.64C332.91 313.58 340.48 309.33 347.81 305.16C365.85 294.91 392.8 276.24 410.84 265.99C412.34 265.13 413.93 264.15 415.2 262.96C415.21 262.94 415.22 262.93 415.23 262.92C415.25 262.9 415.26 262.89 415.27 262.88C415.29 262.86 415.3 262.85 415.32 262.84C415.33 262.83 415.34 262.81 415.35 262.8C415.37 262.79 415.38 262.77 415.39 262.76C415.41 262.75 415.42 262.73 415.43 262.72C415.45 262.71 415.46 262.69 415.47 262.68C415.49 262.67 415.5 262.65 415.51 262.64C415.53 262.63 415.54 262.61 415.55 262.6C415.57 262.59 415.58 262.57 415.59 262.56C415.61 262.55 415.62 262.53 415.63 262.52C415.65 262.51 415.66 262.49 415.67 262.48C415.69 262.47 415.7 262.45 415.71 262.44C415.72 262.43 415.74 262.42 415.75 262.4C415.76 262.39 415.78 262.38 415.79 262.36C415.8 262.35 415.82 262.34 415.83 262.32C415.84 262.31 415.86 262.3 415.87 262.28C415.88 262.27 415.9 262.26 415.91 262.24C415.92 262.23 415.94 262.22 415.95 262.2C415.96 262.19 415.97 262.18 415.99 262.17C416 262.15 416.01 262.14 416.03 262.12C416.04 262.11 416.05 262.1 416.07 262.09C416.08 262.07 416.09 262.06 416.11 262.05C416.12 262.03 416.13 262.02 416.15 262.01C416.16 261.99 416.17 261.98 416.19 261.97C416.2 261.95 416.21 261.94 416.23 261.93C416.24 261.91 416.25 261.9 416.26 261.89C416.28 261.87 416.29 261.86 416.31 261.85C416.32 261.84 416.33 261.82 416.34 261.81C416.36 261.8 416.37 261.78 416.38 261.77C416.4 261.76 416.41 261.74 416.42 261.73C416.44 261.72 416.45 261.7 416.46 261.69C416.48 261.68 416.49 261.66 416.5 261.65C416.52 261.64 416.53 261.62 416.54 261.61C416.56 261.6 416.57 261.58 416.58 261.57C416.6 261.56 416.61 261.54 416.62 261.53C416.63 261.52 416.65 261.51 416.66 261.49C416.67 261.48 416.69 261.46 416.7 261.45C416.71 261.44 416.73 261.43 416.74 261.41C416.75 261.4 416.77 261.39 416.78 261.37C416.79 261.36 416.81 261.35 416.82 261.33C416.83 261.32 416.85 261.31 416.86 261.29C416.87 261.28 416.88 261.27 416.9 261.26C416.91 261.24 416.92 261.23 416.94 261.21C416.95 261.2 416.96 261.19 416.98 261.18C416.99 261.16 417 261.15 417.02 261.14C417.03 261.12 417.04 261.11 417.06 261.09C417.07 261.08 417.08 261.07 417.1 261.06C417.11 261.04 417.12 261.03 417.14 261.02C417.15 261 417.16 260.99 417.18 260.98C417.19 260.96 417.2 260.95 417.22 260.94C417.23 260.92 417.24 260.91 417.25 260.9C417.27 260.88 417.28 260.87 417.3 260.86C417.31 260.84 417.32 260.83 417.33 260.82C417.35 260.81 417.36 260.79 417.37 260.78C417.39 260.76 417.4 260.75 417.41 260.74C417.43 260.73 417.44 260.71 417.45 260.7C417.47 260.69 417.48 260.67 417.49 260.66C417.51 260.65 417.52 260.63 417.53 260.62C417.55 260.61 417.56 260.59 417.57 260.58C417.59 260.57 417.6 260.55 417.61 260.54C417.62 260.53 417.64 260.51 417.65 260.5C417.66 260.49 417.68 260.47 417.69 260.46C417.7 260.45 417.72 260.43 417.73 260.42C417.74 260.41 417.76 260.4 417.77 260.38C417.78 260.37 417.8 260.36 417.81 260.34C417.82 260.33 417.84 260.32 417.85 260.3C417.86 260.29 417.87 260.28 417.89 260.26C417.9 260.25 417.91 260.24 417.93 260.22C417.94 260.21 417.95 260.2 417.97 260.18C417.98 260.17 417.99 260.16 418.01 260.15C418.02 260.13 418.03 260.12 418.05 260.1C418.06 260.09 418.07 260.08 418.09 260.07C418.1 260.05 418.11 260.04 418.13 260.03C418.14 260.01 418.15 260 418.17 259.99C418.18 259.97 418.19 259.96 418.21 259.95C418.22 259.93 418.23 259.92 418.24 259.91C418.26 259.9 418.27 259.88 418.28 259.87C418.3 259.85 418.31 259.84 418.32 259.83C418.34 259.82 418.35 259.8 418.36 259.79C418.38 259.77 418.39 259.76 418.4 259.75C418.42 259.74 418.43 259.72 418.44 259.71C418.46 259.7 418.47 259.68 418.48 259.67C418.5 259.66 418.51 259.64 418.52 259.63C418.54 259.62 418.55 259.6 418.56 259.59C418.58 259.58 418.59 259.56 418.6 259.55C418.61 259.54 418.63 259.52 418.64 259.51C418.65 259.5 418.67 259.49 418.68 259.47C418.69 259.46 418.71 259.44 418.72 259.43C418.73 259.42 418.75 259.41 418.76 259.39C418.77 259.38 418.79 259.37 418.8 259.35C418.81 259.34 418.83 259.33 418.84 259.31C418.85 259.3 418.86 259.29 418.88 259.27C418.89 259.26 418.9 259.25 418.92 259.23C418.93 259.22 418.94 259.21 418.96 259.19C418.97 259.18 418.98 259.17 419 259.16C419.01 259.14 419.02 259.13 419.04 259.11C419.05 259.1 419.06 259.09 419.08 259.08C419.09 259.06 419.1 259.05 419.12 259.04C419.13 259.02 419.14 259.01 419.16 259C420.42 257.81 421.36 256.41 421.58 254.7C422.16 250.08 417.23 246.89 413.07 244.8Z" />
		<path id="Path 28" class="shp12" d="M187.52 176.07C186.66 172.51 185.8 168.95 184.93 165.4C184.45 163.41 184 161.19 185 159.41C186.18 157.29 188.89 156.65 191.28 156.25C236.35 148.57 271 136.25 320.04 128.23C320.96 128.08 321.93 128.31 322.77 128.72C324.43 129.53 325.13 131.5 325.66 133.28C330.99 151.02 340.77 181.79 346.1 199.52C348.04 205.98 350.09 212.64 354.47 217.77C356.68 220.35 359.39 222.44 362.13 224.45C374.4 233.51 399.43 237.97 413.07 244.8C417.23 246.89 422.16 250.08 421.58 254.7C421.15 258.11 417.83 260.29 414.84 261.99C396.8 272.24 369.85 290.91 351.81 301.16C344.48 305.33 336.91 309.58 328.54 310.64C319.28 311.81 309.99 308.94 301.31 305.5C282.18 297.94 261.27 282.66 243.5 272.29C236.85 268.41 230.2 264.52 223.55 260.64C218.42 257.65 213.16 254.54 209.55 249.84C206.8 246.28 205.17 242.01 203.63 237.78C195.38 215.17 192.14 198 187.17 174.44" />
		<path id="Path 29" class="shp13" d="M379.15 274.08C376.61 271.06 374.07 268.03 371.54 265C369.84 262.98 367.8 260.78 365.16 260.75C363.58 260.72 362.11 261.5 360.73 262.26C349.63 268.31 338.54 274.36 327.44 280.41L329.81 279.4L326.07 281.31C325.23 281.74 324.3 282.28 324.11 283.21C323.97 283.86 324.26 284.53 324.56 285.13C327.06 290.2 330.56 294.78 334.81 298.52C336.89 300.35 339.55 302.07 342.24 301.43C343.28 301.19 344.2 300.61 345.11 300.03C356.64 292.73 368.2 285.41 378.72 276.72C379.23 276.3 379.78 275.76 379.71 275.11C379.67 274.72 379.4 274.39 379.15 274.08Z" />
		<path id="Path 30" class="shp14" d="M373.6 241.51C372.25 239.64 370.32 238.27 368.44 236.94C360.68 231.47 352.19 225.76 342.7 225.98C337.73 226.09 332.97 227.85 328.32 229.58C305.78 237.97 283.23 246.37 260.69 254.76L251.42 258.21C251 258.21 250.59 258.38 250.24 258.65C249.83 258.81 249.41 258.96 249 259.11L250.02 258.83C249.49 259.34 249.13 260.11 249.15 260.85C249.19 262.33 250.15 263.6 251.1 264.72C259.81 275.03 271.17 283.08 283.78 287.88C286.36 288.86 289.05 289.72 291.81 289.64C295 289.56 298.02 288.24 300.93 286.95C324.49 276.5 348.14 266.01 370.12 252.56C372 251.41 373.98 250.1 374.79 248.05C375.64 245.9 374.95 243.39 373.6 241.51Z" />
		<path id="Path 31" class="shp15" d="M261.56 266.05C287.21 253.33 313.71 242.48 340.9 233.53C342.12 233.13 341.6 231.19 340.37 231.6C313.01 240.6 286.35 251.53 260.55 264.32C259.4 264.89 260.41 266.62 261.56 266.05ZM271.69 272.79C297.17 257.21 324.6 245.2 353.33 237.04C354.56 236.68 354.04 234.75 352.79 235.11C323.91 243.32 296.31 255.4 270.68 271.06C269.58 271.73 270.59 273.46 271.69 272.79ZM283.41 280.02C294.19 272 307.24 266.98 319.29 261.2C332.08 255.07 344.79 248.04 358.55 244.33C359.79 244 359.26 242.07 358.02 242.41C344.71 245.99 332.42 252.69 320.06 258.62C307.45 264.67 293.68 269.9 282.4 278.29C281.38 279.05 282.38 280.79 283.41 280.02ZM303.32 278.77C319.62 268.23 338.39 261.31 356.05 253.35C357.22 252.83 356.2 251.1 355.04 251.63C337.38 259.58 318.61 266.51 302.31 277.05C301.23 277.74 302.23 279.48 303.32 278.77Z" />
		<path id="Path 32" class="shp16" d="M199.58 163.53L314.43 134.83C316.05 134.42 317.74 135.59 318.2 137.44L336.2 210.51C336.66 212.36 335.71 214.19 334.08 214.59L219.23 243.29C217.61 243.7 215.92 242.53 215.46 240.68L197.46 167.61C197 165.76 197.95 163.93 199.58 163.53Z" />
		<path id="Path 33" class="shp17" d="M335.6 208.07L214.86 238.24L198.09 170.2L318.84 140.03L335.6 208.07Z" />
		<path id="Path 34" class="shp18" d="M204.18 177.32L201.77 177.92L201.1 175.18L203.51 174.58L204.18 177.32ZM205.17 181.31L202.76 181.91L202.08 179.17L204.49 178.57L205.17 181.31ZM206.15 185.29L203.74 185.89L203.06 183.16L205.47 182.55L206.15 185.29ZM207.13 189.28L204.72 189.88L204.05 187.14L206.46 186.54L207.13 189.28ZM208.11 193.26L205.7 193.86L205.03 191.12L207.44 190.52L208.11 193.26ZM209.09 197.25L206.68 197.85L206.01 195.11L208.42 194.51L209.09 197.25ZM210.08 201.23L207.67 201.83L206.99 199.09L209.4 198.49L210.08 201.23ZM211.06 205.22L208.65 205.82L207.97 203.08L210.38 202.48L211.06 205.22ZM212.04 209.2L209.63 209.8L208.96 207.06L211.37 206.46L212.04 209.2ZM213.02 213.19L210.61 213.79L209.94 211.05L212.35 210.45L213.02 213.19ZM214 217.17L211.59 217.77L210.92 215.03L213.33 214.43L214 217.17ZM214.99 221.16L212.58 221.76L211.9 219.02L214.31 218.42L214.99 221.16ZM215.97 225.14L213.56 225.74L212.88 223L215.29 222.4L215.97 225.14ZM216.95 229.13L214.54 229.73L213.87 226.99L216.28 226.39L216.95 229.13ZM217.93 233.11L215.52 233.71L214.85 230.97L217.26 230.37L217.93 233.11Z" />
		<path id="Path 35" class="shp19" d="M203.64 168.93L220.39 236.86" />
		<path id="Path 36" class="shp20" d="M216.22 174.14L209.1 175.92L208.42 173.18L215.55 171.4L216.22 174.14Z" />
		<path id="Path 37" class="shp21" d="M217.14 177.85L210.01 179.63L209.34 176.89L216.46 175.11L217.14 177.85Z" />
		<path id="Path 38" class="shp20" d="M228.7 178.9L215.74 182.14L215.07 179.4L228.02 176.16L228.7 178.9Z" />
		<path id="Path 39" class="shp21" d="M243.78 179.14L223.15 184.29L222.48 181.55L243.11 176.4L243.78 179.14ZM253.08 185.46L232.45 190.61L231.78 187.87L252.41 182.72L253.08 185.46ZM249.65 202.94L229.01 208.09L228.34 205.35L248.97 200.2L249.65 202.94Z" />
		<path id="Path 40" class="shp22" d="M259.38 183.89L255.28 184.91L254.6 182.17L258.7 181.15L259.38 183.89ZM305.36 172.4L261.63 183.32L260.96 180.58L304.68 169.66L305.36 172.4ZM275.89 183.75L238.44 193.11L237.76 190.37L275.22 181.01L275.89 183.75ZM277.83 191.58L240.37 200.94L239.7 198.2L277.15 188.84L277.83 191.58ZM287.94 185.06L239.44 197.18L238.77 194.44L287.27 182.32L287.94 185.06ZM279.72 170.16L245.91 178.61L245.23 175.87L279.05 167.42L279.72 170.16ZM244.71 182.91L224.08 188.07L223.4 185.33L244.03 180.17L244.71 182.91Z" />
		<path id="Path 41" class="shp23" d="M295.84 170.14L246.84 182.38L246.16 179.64L295.17 167.4L295.84 170.14ZM236.4 193.62L226.02 196.21L225.34 193.47L235.72 190.88L236.4 193.62Z" />
		<path id="Path 42" class="shp22" d="M238.33 201.45L227.95 204.05L227.27 201.31L237.66 198.71L238.33 201.45Z" />
		<path id="Path 43" class="shp23" d="M258.31 204.78L237.62 209.95L236.95 207.21L257.63 202.04L258.31 204.78ZM310.96 183.31L280.6 190.89L279.93 188.15L310.28 180.57L310.96 183.31Z" />
		<path id="Path 44" class="shp22" d="M250.58 173.44L229.9 178.6L229.22 175.86L249.91 170.7L250.58 173.44ZM309.03 175.47L278.67 183.05L278 180.31L308.35 172.73L309.03 175.47Z" />
		<path id="Path 45" class="shp20" d="M236.42 210.25L223.47 213.48L222.79 210.74L235.75 207.51L236.42 210.25ZM228.69 224.74L221.57 226.52L220.89 223.78L228.02 222L228.69 224.74Z" />
		<path id="Path 46" class="shp24" d="M307.3 139.8C307.6 140.98 306.99 142.15 305.95 142.41C304.91 142.67 303.83 141.92 303.54 140.74C303.25 139.56 303.85 138.39 304.89 138.13C305.93 137.87 307.01 138.62 307.3 139.8Z" />
		<path id="Path 47" class="shp25" d="M311.99 138.63C312.28 139.81 311.67 140.98 310.64 141.24C309.6 141.5 308.52 140.75 308.23 139.57C307.93 138.39 308.54 137.22 309.58 136.96C310.62 136.7 311.7 137.45 311.99 138.63Z" />
		<path id="Path 48" class="shp26" d="M316.61 137.48C316.9 138.66 316.29 139.83 315.25 140.09C314.21 140.35 313.13 139.6 312.84 138.42C312.55 137.23 313.16 136.07 314.2 135.81C315.24 135.55 316.32 136.29 316.61 137.48Z" />
		<path id="Path 49" class="shp27" d="M199.58 163.53L314.43 134.83C316.05 134.42 317.74 135.59 318.2 137.44L336.2 210.51C336.66 212.36 335.71 214.19 334.08 214.59L219.23 243.29C217.61 243.7 215.92 242.53 215.46 240.68L197.46 167.61C197 165.76 197.95 163.93 199.58 163.53Z" />
		<path id="Path 50" class="shp28" d="M260.49 334.67L202.31 293.92C191.35 286.24 178.41 278.18 165.51 281.72C158.74 283.58 153.24 288.4 148 293.08C133.92 305.65 109.87 332.84 109.87 332.84C106.9 336.81 111.03 342.13 114.87 345.27C139.46 365.4 165.27 384.04 192.11 401.06C194.59 402.64 197.31 404.26 200.25 404.04C203.32 403.81 205.85 401.63 208.13 399.56C226.24 383.11 244.34 366.65 262.45 350.2C264.43 348.4 266.53 346.35 266.8 343.7C267.19 339.85 263.66 336.88 260.49 334.67Z" />
		<path id="Path 51" class="shp16" d="M168.93 299.44C166.85 299.65 165.25 301.29 163.84 302.82C154.81 312.63 145.79 322.44 136.76 332.25C136.76 332.25 142.17 339.8 146.73 339.1C148.21 338.88 149.33 337.69 150.32 336.57C156.66 329.48 163 322.38 169.34 315.28C171.63 312.71 174.03 309.92 174.47 306.51C174.91 303.09 172.35 299.1 168.93 299.44Z" />
		<path id="Path 52" class="shp29" d="M250.07 388.51L248.03 397.48C247.82 398.4 246.61 398.63 246.07 397.85L240.17 389.25L248.33 386.87L250.07 388.51Z" />
		<path id="Path 53" class="shp30" d="M241.01 338.41C239.32 325.26 238.42 311.99 235.77 299.01C235.56 297.99 235.32 296.94 234.68 296.12C233.42 294.52 230.51 294.16 228.47 294.12C227.3 294.09 226.39 295.1 226.56 296.25C228.42 309.12 230.27 321.98 232.13 334.85C234.71 352.73 237.3 370.61 240.01 388.48C240.13 389.3 240.35 390.25 241.11 390.59C241.63 390.82 242.23 390.67 242.78 390.52C245.21 389.85 247.64 389.18 250.07 388.51C246.62 371.89 243.17 355.25 241.01 338.41Z" />
		<path id="Path 54" class="shp12" d="M220.16 354.15C218.47 341.01 217.57 327.74 214.92 314.75C214.71 313.74 214.47 312.68 213.83 311.87C212.57 310.27 209.66 309.91 207.62 309.86C206.45 309.84 205.54 310.85 205.71 312L211.28 350.59C213.86 368.47 216.44 386.36 219.16 404.22C219.28 405.04 219.5 406 220.26 406.33C220.78 406.56 221.38 406.41 221.93 406.26C224.36 405.59 226.79 404.92 229.22 404.25C225.77 387.63 222.32 370.99 220.16 354.15Z" />
		<path id="Path 55" class="shp14" d="M214.92 314.75C214.71 313.74 214.47 312.68 213.83 311.87C212.57 310.27 209.66 309.91 207.62 309.86C206.45 309.84 205.54 310.85 205.71 312C206.11 314.79 206.51 317.58 206.92 320.37C207.2 320.35 207.48 320.32 207.76 320.3C210.45 320.13 213.11 319.72 215.75 319.2C215.49 317.71 215.22 316.23 214.92 314.75ZM231.11 394.88C230.08 387.01 228.25 379.32 225.78 371.8C225.38 370.58 223.45 371.1 223.85 372.33C225.55 377.5 226.97 382.76 228 388.11C228.56 390.99 229.01 393.89 229.35 396.81C229.54 398.45 230.13 399.78 228.89 400.84C228.79 400.92 228.66 400.96 228.55 401.02C226.45 390.89 224.39 380.75 222.65 370.56C219.91 371.18 217.23 372.16 214.51 372.83C216.03 383.3 217.57 393.76 219.16 404.22C219.28 405.04 219.5 406 220.26 406.33C220.78 406.56 221.38 406.41 221.93 406.26C224.36 405.59 226.79 404.92 229.22 404.25C229.13 403.84 229.05 403.43 228.96 403.01C232.25 401.95 231.81 400.2 231.11 394.88Z" />
		<path id="Path 56" class="shp31" d="M441.74 140.32C449.12 141.35 454.66 142.5 453.93 151.2C453.3 158.75 449.03 160.1 442.24 161.14C434.62 162.3 436.49 174.16 444.15 172.99C457.55 170.94 465.47 164.46 466.01 150.32C466.57 135.74 456.06 130.2 443.05 128.4C442.73 128.35 442.41 128.33 442.11 128.33C435.3 128.33 434.42 139.31 441.74 140.32Z" />
		<path id="Path 57" class="shp32" d="M381.13 121.04C379.67 121.51 377.41 121.98 377.25 123.39C379.25 124.17 381.42 124.34 383.56 124.5C391.03 125.05 398.51 125.61 405.98 126.17C411.18 126.56 416.37 126.95 421.57 127.34C424.1 127.52 426.64 127.72 429.18 127.73C432.37 127.74 435.55 127.48 438.69 126.95C440.11 126.7 441.58 126.38 442.7 125.47C443.76 124.62 444.38 123.1 443.9 121.87C444.52 121.74 444.58 120.46 444.19 119.87C443.77 119.22 443.23 119.29 442.48 119.12C436.11 117.66 429.54 117.32 423 117.09C419.58 116.97 416.14 116.89 412.7 116.89C401.98 116.89 391.27 117.73 381.13 121.04Z" />
		<path id="Path 58" class="shp33" d="M377.22 123.23C377.22 123.23 378.95 146.4 379.39 157.4C379.55 161.39 379.72 165.45 381.01 169.24C384.13 178.43 393.43 184.41 402.95 186.32C412.47 188.22 422.3 186.76 431.9 185.3C433.45 185.06 435.07 184.8 436.36 183.9C437.59 183.04 438.38 181.68 439.05 180.33C443.19 171.86 443.61 162.11 443.96 152.69C444.25 144.73 444.55 136.77 444.84 128.81C444.94 126.1 445.04 123.36 444.46 120.7C422.27 124.34 399.62 125.19 377.22 123.23Z" />
		<path id="Path 59" class="shp34" d="M547.5 223.54C546.87 226.14 546.25 228.76 546.18 231.42C546.03 236.78 548.08 241.93 550.13 246.88C553.9 256.02 557.8 265.2 563.46 273.31C563.77 273.76 564.15 274.24 564.7 274.3C565.44 274.39 566 273.65 566.36 272.99C571.41 263.57 569.58 251.67 564.41 242.31C563.1 239.92 561.58 237.65 560.07 235.38C556.74 230.39 553 225.07 547.3 223.16" />
		<path id="Path 60" class="shp35" d="M553.29 225.4C524.29 227.24 495.51 232.43 467.69 240.83C460.74 242.93 453.82 245.23 446.66 246.39C431.22 248.9 415.18 245.94 400.89 239.59C396.69 237.73 392.55 235.56 388.03 234.79C383.51 234.01 378.38 234.92 375.35 238.36C372.34 241.79 372.08 246.76 371.97 251.33C371.91 253.83 371.85 256.33 371.8 258.84C371.76 260.22 371.74 261.66 372.28 262.93C373.74 266.34 378.2 266.93 381.88 267.35C398.43 269.26 414.01 277.79 430.68 277.48C438.75 277.33 446.62 275.1 454.59 273.76C461.13 272.65 467.75 272.14 474.36 271.63L566.99 264.51C564.96 255.29 562.93 246.06 560.89 236.84C559.92 232.44 558.94 228 557.05 223.91L553.29 225.4Z" />
		<path id="Path 61" class="shp30" d="M614.21 194.15C592.68 205.33 570.44 215.12 547.65 223.43C549.55 229.48 553.52 234.63 556.58 240.19C564.13 253.94 565.99 270.71 561.63 285.78C569.33 278.58 581.21 276.83 588.2 268.93C597.76 258.1 594.06 241.14 598.98 227.56C603.26 215.74 614.16 206.32 614.94 193.78L614.21 194.15Z" />
		<g id="Mask" clip-path="url(#cp1)">
			<path id="Path 63" class="shp36" d="M565.68 441.07C532.35 452.86 499.01 464.65 465.67 476.43C451.65 481.39 436.75 486.98 428.03 499.03C422.2 507.1 419.85 517.25 419.52 527.2C418.6 555.2 432.37 581.33 445.76 605.93C458.71 629.71 471.66 653.5 484.61 677.28C485.8 679.48 487.07 681.76 489.15 683.14C491.63 684.8 494.82 684.89 497.8 684.8C510 684.43 522.13 682.01 533.54 677.68C522.67 645.48 511.81 613.28 500.95 581.09C500.07 578.47 499.18 575.67 499.9 573C500.5 570.78 502.15 569 503.89 567.5C512.63 559.99 524.48 557.58 535.34 553.74C559.33 545.26 581.04 527.41 589.06 503.26C597.08 479.11 588.38 449.03 566.06 436.8" />
			<path id="Path 64" class="shp37" d="M705.6 430.62C642.77 446.1 579.95 461.59 517.12 477.07C492.38 483.17 466.84 489.65 446.73 505.3C422.15 524.44 409.15 554.49 397.13 583.23L349.81 696.38C363.36 697.32 376.91 698.27 390.46 699.22C394.5 699.5 398.76 699.74 402.37 697.91C406.45 695.83 408.84 691.56 411 687.51C431.91 648.3 452.82 609.09 473.73 569.87C477.76 562.3 482.02 554.47 488.93 549.38C494.5 545.26 501.33 543.3 508.04 541.55C560.33 527.91 614.84 522.79 668.77 526.45C683.41 527.44 699.12 528.85 711.83 521.5C727.42 512.48 733.66 492.16 730.79 474.38C727.91 456.6 717.65 440.93 706.61 426.7" />
		</g>
		<path id="Path 66" class="shp38" d="M734.99 246.4C733.31 232.39 730.42 217.61 720.78 207.3C709.37 195.11 691.46 192.13 674.93 189.83C663.36 188.22 651.69 186.61 640.04 187.45C628.39 188.29 616.62 191.78 607.7 199.33L608.24 201.61C600.1 219.33 591.95 237.06 583.8 254.78C578.77 265.73 573.7 276.78 571.01 288.53C569.43 295.4 568.69 302.43 567.95 309.44C565.32 334.43 562.7 359.41 560.07 384.4C557.11 412.47 553.35 444.35 545.91 471.57C570.54 469.8 595.94 464.37 620.57 462.6C627.65 462.09 634.74 461.57 641.73 460.29C648.82 458.99 655.75 456.9 662.66 454.82C678.4 450.07 694.15 445.31 709.89 440.56C713.31 439.53 716.82 438.45 719.61 436.22C725.07 431.84 726.46 424.22 727.44 417.28C735.46 360.67 741.82 303.18 734.99 246.4Z" />
		<path id="Path 67" class="shp39" d="M556.4 118.68C557.68 122.59 559.19 126.47 559.68 130.56C560.78 139.89 556.48 148.98 555.62 158.34C554.14 174.55 563.56 190.49 576.92 199.79C590.28 209.1 606.99 212.52 623.27 212.72C643.04 212.97 664.3 207.92 677.17 192.91C685.39 183.32 689.31 170.51 689.5 157.88C689.7 145.25 686.39 132.76 681.51 121.11C663.76 78.74 625.21 47.14 582.07 31.35C575.38 28.9 568.21 26.76 561.21 28.11L562.89 21.04C550.61 51.98 546.06 87.04 556.4 118.68Z" />
		<path id="Path 68" class="shp40" d="M603.95 151.43L608.39 153.94C615.27 162.68 619.19 173.71 619.37 184.83C619.56 196.33 615.9 207.51 614.62 218.94C614.52 219.84 614.5 220.91 615.21 221.46C615.76 221.88 616.52 221.83 617.2 221.75C631.26 220.13 645.69 216.45 656.36 207.17C659.58 204.38 662.45 201.02 663.87 197C666.75 188.89 663.24 179.92 658.67 172.64C651.65 161.48 641.33 151.66 628.49 148.63C625.77 147.99 622.98 147.67 620.18 147.67C614.58 147.67 608.97 148.95 603.95 151.43Z" />
		<path id="Path 69" class="shp41" d="M571.5 34.58L570.82 37.47C566.97 57.76 564.23 78.27 562.61 98.86C562.26 103.3 561.97 107.81 562.83 112.17C563.92 117.65 566.77 122.59 569.58 127.42C573.85 134.77 578.12 142.12 582.39 149.47C584.8 153.61 587.29 157.85 591.06 160.8C600.9 168.51 615.12 164.83 626.96 160.8C630.29 159.67 633.72 158.48 636.32 156.12C639.14 153.59 640.7 149.96 641.89 146.36C652.82 113.37 638.1 75.72 612.49 52.21C601.93 42.52 588.6 34.47 574.42 34.47C573.45 34.47 572.48 34.5 571.5 34.58Z" />
		<path id="Path 70" class="shp34" d="M604.52 276.86C604.22 273.42 603.74 269.97 602.52 266.74C601.17 263.2 598.99 260.05 596.82 256.94C595.45 254.97 594.04 252.96 592.12 251.51C590.21 250.07 586.32 246.53 584.02 247.24L583.76 248.62C581.77 265.78 582.96 283.3 587.26 300.04C589.14 307.35 591.6 314.5 594.07 321.65C595.4 325.53 596.79 329.49 599.35 332.71C604.88 321.33 605.02 308.18 605.05 295.53C605.06 289.3 605.07 283.06 604.52 276.86Z" />
		<path id="Path 71" class="shp42" d="M592.55 250.35C545.18 280.08 488.74 291.47 433.29 298.77C423.84 300.01 414.05 301.13 404.9 298.45C393.83 295.22 385.11 286.88 376.77 278.92C369.68 272.15 360.35 264.92 351.08 268.09C347.86 269.19 345.19 271.44 342.6 273.64C338.79 276.87 334.99 280.11 331.18 283.34C329.64 284.65 327.99 286.14 327.67 288.15C327.11 291.8 331.08 294.38 334.49 295.78C341.11 298.49 348.03 300.28 354.2 303.89C362.56 308.8 373.17 322.26 386.51 324.74C389.97 325.39 393.48 325.07 397 324.75C399.82 324.49 402.66 324.24 405.48 324.48C427.22 326.36 488.11 324.67 497.32 324.32C505.84 324 514.27 322.63 522.68 321.27C532.23 319.71 541.77 318.16 551.31 316.61C571.26 313.37 591.27 310.11 610.58 304.16C611.22 303.97 611.9 303.74 612.31 303.2C612.76 302.6 612.74 301.79 612.7 301.04C612.28 292.5 611.86 283.95 611.45 275.41C611.09 268.16 610.71 260.79 608.39 253.91C607.56 251.44 606.32 248.88 604 247.69C603.07 247.21 602.09 247.01 601.09 247.01C598.19 247.01 595.14 248.72 592.55 250.35Z" />
		<path id="Path 72" class="shp30" d="M722.09 218.55C719.79 213.17 716.61 208 711.95 204.46C704.65 198.91 694.86 198.1 685.69 198.19C677.48 198.28 669.27 198.92 661.14 200.11C659.54 200.35 657.5 201.64 657.91 202.92C653.54 204.61 649.68 207.76 645.95 210.73C627.14 225.7 606.23 238.03 584.02 247.24C593.97 258.38 596.29 274.22 597.45 289.11C598.58 303.61 599.02 318.16 598.77 332.7C623.84 330.25 648.48 323.51 671.31 312.87C691.91 303.27 711.95 289.44 721.44 268.8C728.64 253.13 728.89 234.41 722.09 218.55Z" />
		<path id="Path 73" class="shp43" d="M554.95 4.07C549.85 22.9 562.23 41.82 575.41 56.2C595.81 78.46 621.03 99.69 626.31 129.41C628.57 142.12 626.84 155.27 628.98 167.99C632.67 190 648.23 209.19 668.15 219.25C688.06 229.31 711.79 230.65 733.37 224.98C741.72 222.79 750.03 219.45 756.21 213.41C761.12 208.61 764.38 202.38 767.05 196.05C772.09 184.15 775.32 171.5 776.62 158.64C777.29 152.08 777.4 145.21 774.77 139.15C772 132.78 766.52 128.05 761.21 123.56C753.97 117.42 746.72 111.28 739.47 105.13C735.92 102.13 732.27 98.99 730.27 94.78C728.04 90.07 728.16 84.65 727.75 79.45C725.88 55.8 711.06 33.59 689.95 22.77C649.12 1.85 595.17 23.73 555.81 0.14L554.95 4.07Z" />
		<path id="Path 74" class="shp44" d="M767.04 202.43C761.84 202.58 757.22 205.67 753.06 208.78C731.18 225.14 712.41 245.62 698.02 268.84C691.34 279.63 685.49 291.31 684.03 303.92C682.48 317.21 685.88 330.49 688.14 343.68C697.8 399.9 687.36 459.94 706.59 513.24C656.18 514.08 605.83 518.55 556.08 526.7C536.67 529.88 514.61 535.62 506.15 553.37C503.54 558.87 502.57 565.32 504.41 571.12C508.93 585.39 526.75 589.64 541.63 591.13C598.52 596.8 656.05 596.02 712.77 588.81C729.52 586.67 746.37 583.93 762.02 577.59C777.66 571.25 792.18 560.97 800.91 546.52C811.15 529.56 812.5 508.88 813.57 489.1C814.02 480.89 816.89 458.56 816.71 456.51C810.14 380.92 800.58 305.6 788.05 230.77C786.98 224.41 785.84 217.89 782.59 212.32C779.41 206.87 773.73 202.42 767.44 202.42C767.31 202.42 767.17 202.42 767.04 202.43Z" />
		<path id="Path 75" class="shp45" d="M684.03 303.92C682.48 317.21 685.88 330.49 688.14 343.68C697.8 399.9 687.36 459.94 706.59 513.24C656.18 514.08 605.83 518.55 556.08 526.7C536.67 529.88 514.61 535.62 506.15 553.37C503.54 558.87 502.57 565.32 504.41 571.12C508.93 585.39 526.75 589.64 541.63 591.13C598.52 596.8 656.05 596.02 712.77 588.81C719.14 587.99 725.52 587.09 731.85 585.94C742.06 574.35 747.31 558.06 749.22 542.38C750.32 533.4 750.54 524.07 747.57 515.52C745.11 508.46 740.62 502.32 737.33 495.6C726.91 474.35 729.31 449.42 729.54 425.74C729.87 391.82 725.24 357.91 716.58 325.11C712.26 308.73 705.15 290.72 689.82 284.04C686.97 290.4 684.83 297.02 684.03 303.92Z" />
	</g>
</svg>