<svg xmlns="http://www.w3.org/2000/svg" viewBox="0 0 108 56" width="108" height="56">
	<style>
		tspan { white-space:pre }
		.shp0 { fill: none;stroke: #00ca73;stroke-width: 5.006 } 
		.shp1 { fill: none;stroke: #60a9dd;stroke-linecap:round;stroke-linejoin:round;stroke-width: 5.006 } 
	</style>
	<path id="Path 10" class="shp0" d="M32.32 30.25C32.32 35.6 27.98 39.94 22.63 39.94C17.28 39.94 12.94 35.6 12.94 30.25C12.94 24.9 17.28 20.56 22.63 20.56C27.98 20.56 32.32 24.9 32.32 30.25Z" />
	<path id="Path 14" class="shp1" d="M384.57 -31.09C376.82 -19.99 365.1 -6.53 352.8 -7.99C336.09 -9.98 330.43 -38.05 316.55 -37.73C311.23 -37.61 303.46 -33.29 294.31 -11.9M338.1 313.73C324.66 336.46 303.63 364.51 278.3 364.07C243.33 363.46 228.88 309.05 193.32 307.79C178.44 307.26 156.14 315.9 127.49 363.03M-261.67 -294.83C-264.7 -287.04 -269.21 -278.16 -274.67 -278.18C-282.25 -278.21 -285.92 -295.37 -292.77 -295.01C-295.6 -294.87 -299.46 -291.71 -303.61 -277.59M175.62 -108.04C172.38 -102.73 168.05 -97.59 163.13 -97.76C155.56 -98.01 151.84 -110.62 146.08 -109.83C143.81 -109.51 141.08 -107.1 138.64 -98.5M98.48 23.73C91.09 35.67 85.67 37.71 82.12 37.43C73.87 36.75 71.27 23.1 62.39 22.13C56.26 21.46 50.61 27.21 46.93 31.92M3.36 381.01C-8.18 400.95 -17.52 405.38 -24.26 405.21C-39.64 404.83 -46.6 380.36 -60.61 381.06C-70.04 381.54 -77.32 393.13 -82.28 403.99M-115.85 456.17C-120.21 468.88 -125.16 473.48 -129.82 474.25C-139.9 475.89 -147.36 459.38 -157.19 461.16C-163.23 462.25 -167.37 469.74 -170.27 478.87M-459.85 170.48C-466.45 183.93 -472.35 187.42 -476.89 187.61C-487.27 188.04 -493.15 171.35 -502.74 172.47C-508.64 173.16 -512.82 180.24 -515.63 187.08" />
</svg>