<svg xmlns="http://www.w3.org/2000/svg" viewBox="0 0 888 877" width="888" height="877">
	<style>
		tspan { white-space:pre }
		.shp0 { fill: #f0b6c2 } 
	</style>
	<path id="Path 78" class="shp0" d="M886.06 354.76C873.26 253.8 799.41 172.87 729.16 99.25C691.27 59.53 650.37 18.02 597.09 4.83C533.43 -10.92 465.16 18.89 419.27 65.74C373.39 112.59 346.06 174.21 322.61 235.45L284.71 270.63C225.34 374.55 62.7 387.92 13.92 497.21C-9.24 549.11 0.61 609.96 20.24 663.29C49.24 742.12 101.91 815.85 177.88 851.68C285.03 902.22 413.15 868.01 518.86 814.55C589.07 779.05 655.16 735.41 715.37 684.76C814.29 601.55 902.33 483 886.06 354.76Z" />
</svg>