<svg xmlns="http://www.w3.org/2000/svg" viewBox="0 0 1289 813" width="1289" height="813">
	<style>
		tspan { white-space:pre }
		.shp0 { fill: #f0b6c2 } 
		.shp1 { fill: #fbdb8e } 
		.shp2 { fill: #2071e4 } 
		.shp3 { fill: #f46464 } 
	</style>
	<g id="bg" style="opacity: 0.349">
		<path id="Path 78" class="shp0" d="M153.14 19.08C149.89 -6.53 131.16 -27.06 113.34 -45.74C103.72 -55.82 93.35 -66.35 79.83 -69.69C63.68 -73.69 46.36 -66.13 34.72 -54.24C23.08 -42.36 16.15 -26.72 10.2 -11.19L0.59 -2.26C-14.48 24.1 -55.73 27.49 -68.11 55.21C-73.98 68.38 -71.49 83.82 -66.51 97.35C-59.15 117.34 -45.79 136.05 -26.51 145.14C0.67 157.96 33.17 149.28 59.99 135.72C77.8 126.71 94.56 115.64 109.84 102.79C134.93 81.68 157.26 51.61 153.14 19.08Z" />
		<path id="Path 79" class="shp1" d="M1277.12 338.16C1272.86 330.73 1267.45 323.89 1260.76 318.54C1252.67 312.07 1243 307.96 1233.42 304C1213.43 295.73 1190.89 287.72 1170.75 295.62L1145.49 314.09C1129.44 319.03 1116.3 331.54 1108.73 346.53C1101.15 361.52 1098.81 378.78 1100.02 395.53C1100.67 404.55 1102.38 413.68 1106.77 421.58C1113.81 434.25 1126.81 442.31 1139.64 449.07C1157.76 458.62 1177.19 466.82 1197.66 467.83C1228.54 469.34 1259.66 452.9 1275.82 426.54C1291.97 400.18 1292.49 364.99 1277.12 338.16ZM111.88 278.28C101.65 269.01 87.19 264.59 73.52 266.58L51.18 273.81C32.28 284.67 22.17 308.87 27.72 329.95C28.56 333.15 29.75 336.32 31.75 338.95C35.96 344.46 43.1 346.83 49.95 347.87C68.27 350.65 86.81 346.03 104.76 341.44C109.22 340.3 113.8 339.11 117.55 336.42C124.07 331.75 126.9 323.33 127.27 315.32C127.91 301.52 122.11 287.56 111.88 278.28Z" />
		<path id="Path 81" class="shp1" d="M250.43 778.97C245 771.91 235.19 769.94 226.28 769.96L222.17 773.63C221.51 772.12 219.23 772.81 217.9 773.78C212.92 777.42 208.47 782.12 206.36 787.93C204.25 793.73 204.83 800.75 208.9 805.4C211.12 807.93 214.17 809.6 217.32 810.78C226.97 814.39 238.68 813.44 246.48 806.72C254.29 800 256.71 787.14 250.43 778.97Z" />
		<path id="Path 81 copy" class="shp1" d="M1115.75 798.55C1118.71 778.73 1106.59 759.77 1092.66 745.38L1080.31 744.45C1081.72 741.03 1077.05 738.41 1073.4 737.77C1059.72 735.38 1045.18 735.52 1032.48 741.15C1019.78 746.79 1009.32 758.7 1008.14 772.54C1007.5 780.08 1009.56 787.62 1012.57 794.57C1021.78 815.82 1041.6 833.31 1064.67 835.46C1087.73 837.62 1112.32 821.46 1115.75 798.55Z" />
		<path id="Path 81 copy 2" class="shp1" d="M531.48 72.04C517.72 73.54 507.19 84.96 500.02 96.79L501.56 105.2C499.03 104.86 498.1 108.44 498.32 110.99C499.13 120.55 501.77 130.24 507.76 137.73C513.76 145.22 523.54 150.11 532.99 148.47C538.14 147.58 542.82 144.88 546.93 141.65C559.51 131.77 567.71 115.46 565.1 99.68C562.49 83.89 547.38 70.31 531.48 72.04Z" />
		<path id="Path 82" class="shp2" d="M142.19 141C157.68 127.67 173.18 114.35 188.67 101.02C189.96 122.08 199.19 141.73 208.27 160.79C192.6 154.8 176.47 150.05 160.06 146.59C156.03 145.75 151.85 144.92 148.48 142.55" />
		<path id="Path 82 copy" class="shp2" d="M1115.26 711.42C1117.19 697.23 1119.13 683.04 1121.06 668.85C1131.52 679.3 1145.5 685.31 1159.11 691.09C1148.11 695.23 1137.44 700.23 1127.23 706.05C1124.72 707.48 1122.15 708.98 1119.28 709.31" />
		<path id="Path 82 copy 2" class="shp2" d="M1193.34 84.2C1185.72 70.42 1178.1 56.64 1170.49 42.86C1186.58 45.2 1202.85 41.32 1218.65 37.47C1211.67 48.34 1205.55 59.77 1200.37 71.6C1199.09 74.51 1197.81 77.53 1195.5 79.7" />
		<path id="Path 82 copy 3" class="shp2" d="M-102.25 787.04C-119.18 726.43 -136.11 665.81 -153.04 605.19C-92.61 629.12 -25.74 629.04 39.25 628.62C2.08 664.48 -32.24 703.27 -63.32 744.52C-70.94 754.66 -78.7 765.23 -89.7 771.52" />
		<path id="Path 83" class="shp3" d="M208.34 227.93C194.67 255.32 195.46 287.53 180.42 314.24C175.92 322.23 188.21 329.41 192.71 321.42C207.85 294.52 206.96 262.48 220.62 235.11C224.7 226.94 212.43 219.73 208.34 227.93ZM369.66 10.8C378.07 25.74 385.99 40.93 393.44 56.37C397.42 64.62 409.69 57.41 405.73 49.19C398.28 33.75 390.35 18.56 381.95 3.62C377.46 -4.37 365.16 2.8 369.66 10.8ZM2.45 408.4C27.48 427.97 46.95 453.82 67.31 477.96C73.22 484.97 83.24 474.86 77.37 467.9C57.01 443.76 37.54 417.91 12.51 398.34C5.38 392.77 -4.76 402.77 2.45 408.4ZM21.3 730.63C57.95 727.69 95.98 732.79 132.64 734.79C141.79 735.29 141.76 721.06 132.64 720.56C95.99 718.56 57.95 713.46 21.3 716.4C12.24 717.12 12.16 731.36 21.3 730.63ZM996.61 33.59C1009.31 58.1 1024.3 81.09 1041.37 102.78C1047.03 109.98 1057.04 99.84 1051.43 92.72C1035.14 72.02 1021.01 49.79 1008.9 26.4C1004.68 18.27 992.4 25.46 996.61 33.59ZM710.17 809.52C723.3 789.86 738.06 771.53 754.42 754.46C760.76 747.85 750.71 737.77 744.36 744.4C727.17 762.33 711.68 781.69 697.88 802.34C692.79 809.98 705.11 817.11 710.17 809.52ZM1169.55 528.04C1165.02 549.56 1161.7 571.26 1159.51 593.13C1158.6 602.24 1172.84 602.17 1173.74 593.13C1175.8 572.52 1179.01 552.1 1183.27 531.83C1185.15 522.89 1171.44 519.07 1169.55 528.04ZM1202.27 174.41C1216.25 190.55 1231.05 205.89 1246.69 220.43C1253.39 226.66 1263.47 216.62 1256.75 210.37C1241.11 195.83 1226.31 180.49 1212.34 164.35C1206.33 157.41 1196.31 167.51 1202.27 174.41ZM867.16 304.51C883.03 312.25 898.89 320.02 914.78 327.74C929.08 334.7 943.43 341.43 959.22 344.16C968.18 345.71 972.03 332 963.01 330.44C947.12 327.7 932.94 320.81 918.56 313.79C903.82 306.6 889.08 299.41 874.34 292.22C866.14 288.22 858.92 300.49 867.16 304.51ZM1186.9 768.8C1215.86 757.15 1245.55 747.69 1275.9 740.43C1284.81 738.3 1281.04 724.58 1272.12 726.71C1241.77 733.97 1212.07 743.43 1183.12 755.08C1174.73 758.46 1178.39 772.23 1186.9 768.8ZM718.04 115.35C725.69 135.05 734.87 153.98 745.78 172.08C750.5 179.91 762.81 172.77 758.07 164.89C747.8 147.86 738.97 130.12 731.77 111.57C728.49 103.12 714.72 106.8 718.04 115.35Z" />
		<path id="Path 83 copy" class="shp3" d="M208.34 227.93C194.67 255.32 195.46 287.53 180.42 314.24C175.92 322.23 188.21 329.41 192.71 321.42C207.85 294.52 206.96 262.48 220.62 235.11C224.7 226.94 212.43 219.73 208.34 227.93ZM369.66 10.8C378.07 25.74 385.99 40.93 393.44 56.37C397.42 64.62 409.69 57.41 405.73 49.19C398.28 33.75 390.35 18.56 381.95 3.62C377.46 -4.37 365.16 2.8 369.66 10.8ZM2.45 408.4C27.48 427.97 46.95 453.82 67.31 477.96C73.22 484.97 83.24 474.86 77.37 467.9C57.01 443.76 37.54 417.91 12.51 398.34C5.38 392.77 -4.76 402.77 2.45 408.4ZM21.3 730.63C57.95 727.69 95.98 732.79 132.64 734.79C141.79 735.29 141.76 721.06 132.64 720.56C95.99 718.56 57.95 713.46 21.3 716.4C12.24 717.12 12.16 731.36 21.3 730.63ZM996.61 33.59C1009.31 58.1 1024.3 81.09 1041.37 102.78C1047.03 109.98 1057.04 99.84 1051.43 92.72C1035.14 72.02 1021.01 49.79 1008.9 26.4C1004.68 18.27 992.4 25.46 996.61 33.59ZM710.17 809.52C723.3 789.86 738.06 771.53 754.42 754.46C760.76 747.85 750.71 737.77 744.36 744.4C727.17 762.33 711.68 781.69 697.88 802.34C692.79 809.98 705.11 817.11 710.17 809.52ZM1169.55 528.04C1165.02 549.56 1161.7 571.26 1159.51 593.13C1158.6 602.24 1172.84 602.17 1173.74 593.13C1175.8 572.52 1179.01 552.1 1183.27 531.83C1185.15 522.89 1171.44 519.07 1169.55 528.04ZM1202.27 174.41C1216.25 190.55 1231.05 205.89 1246.69 220.43C1253.39 226.66 1263.47 216.62 1256.75 210.37C1241.11 195.83 1226.31 180.49 1212.34 164.35C1206.33 157.41 1196.31 167.51 1202.27 174.41ZM867.16 304.51C883.03 312.25 898.89 320.02 914.78 327.74C929.08 334.7 943.43 341.43 959.22 344.16C968.18 345.71 972.03 332 963.01 330.44C947.12 327.7 932.94 320.81 918.56 313.79C903.82 306.6 889.08 299.41 874.34 292.22C866.14 288.22 858.92 300.49 867.16 304.51ZM1186.9 768.8C1215.86 757.15 1245.55 747.69 1275.9 740.43C1284.81 738.3 1281.04 724.58 1272.12 726.71C1241.77 733.97 1212.07 743.43 1183.12 755.08C1174.73 758.46 1178.39 772.23 1186.9 768.8ZM718.04 115.35C725.69 135.05 734.87 153.98 745.78 172.08C750.5 179.91 762.81 172.77 758.07 164.89C747.8 147.86 738.97 130.12 731.77 111.57C728.49 103.12 714.72 106.8 718.04 115.35Z" />
		<path id="Path 84" class="shp0" d="M930.29 125.55C918.27 135.2 908.27 147.97 904.36 162.87C900.45 177.78 903.38 194.9 913.99 206.08C922.16 214.69 933.86 219.05 945.45 221.62C963.1 225.52 984.71 224.42 995.07 209.62C1001.86 199.92 1001.74 187.16 1001.35 175.33C1001.21 170.87 1001.04 166.3 999.27 162.21C996.29 155.34 989.42 151.11 982.86 147.51C966.19 138.35 948.86 130.37 931.07 123.64" />
		<path id="Path 84 copy" class="shp0" d="M65.09 563.1C61.1 574.15 59.66 586.42 63.03 597.68C66.4 608.93 75.1 618.91 86.44 621.97C95.17 624.33 104.51 622.53 113.08 619.6C126.11 615.14 139.74 605.85 140.61 592.11C141.17 583.1 136.03 574.85 131.09 567.3C129.23 564.46 127.3 561.55 124.53 559.59C119.87 556.3 113.72 556.28 108.02 556.53C93.54 557.19 79.1 558.87 64.85 561.55" />
	</g>
</svg>