<svg xmlns="http://www.w3.org/2000/svg" viewBox="0 0 897 664" width="897" height="664">
	<defs>
		<clipPath clipPathUnits="userSpaceOnUse" id="cp1">
			<path d="M-12.76 621.14L228.94 621.14L228.94 325.55L-12.76 325.55L-12.76 621.14Z" />
		</clipPath>
		<linearGradient id="grd1" gradientUnits="userSpaceOnUse"  x1="699.868" y1="560.734" x2="837.4" y2="560.734">
			<stop offset="0" stop-color="#d19b67"  />
			<stop offset="1" stop-color="#8f6b46"  />
		</linearGradient>
		<linearGradient id="grd2" gradientUnits="userSpaceOnUse"  x1="773.051" y1="385.252" x2="773.051" y2="219.859">
			<stop offset="0" stop-color="#1f350e"  />
			<stop offset="1" stop-color="#415b2b"  />
		</linearGradient>
		<linearGradient id="grd3" gradientUnits="userSpaceOnUse"  x1="645.537" y1="371.703" x2="787.406" y2="371.703">
			<stop offset="0" stop-color="#61723b"  />
			<stop offset="0.302" stop-color="#415b2b"  />
			<stop offset="1" stop-color="#38471f"  />
		</linearGradient>
		<linearGradient id="grd4" gradientUnits="userSpaceOnUse"  x1="802.336" y1="481.194" x2="802.336" y2="287.808">
			<stop offset="0" stop-color="#587227"  />
			<stop offset="1" stop-color="#81a237"  />
		</linearGradient>
		<linearGradient id="grd5" gradientUnits="userSpaceOnUse"  x1="679.769" y1="493.085" x2="857.507" y2="493.085">
			<stop offset="0" stop-color="#e8ab7c"  />
			<stop offset="1" stop-color="#aa7f5c"  />
		</linearGradient>
		<linearGradient id="grd6" gradientUnits="userSpaceOnUse"  x1="841.89" y1="560.47" x2="841.89" y2="467.458">
			<stop offset="0" stop-color="#84a03c"  />
			<stop offset="1" stop-color="#5c7428"  />
		</linearGradient>
		<linearGradient id="grd7" gradientUnits="userSpaceOnUse"  x1="788.839" y1="585.931" x2="895.53" y2="585.931">
			<stop offset="0" stop-color="#bcd1cc"  />
			<stop offset="1" stop-color="#859593"  />
		</linearGradient>
		<linearGradient id="grd8" gradientUnits="userSpaceOnUse"  x1="302.549" y1="434.574" x2="264.361" y2="541.099">
			<stop offset="0" stop-color="#f8cccb"  />
			<stop offset="0.438" stop-color="#c79090"  />
			<stop offset="1" stop-color="#c79090"  />
		</linearGradient>
		<linearGradient id="grd9" gradientUnits="userSpaceOnUse"  x1="591.673" y1="429.444" x2="615.122" y2="554.057">
			<stop offset="0" stop-color="#f8cccb"  />
			<stop offset="0.438" stop-color="#c79090"  />
			<stop offset="1" stop-color="#c79090"  />
		</linearGradient>
		<linearGradient id="grd10" gradientUnits="userSpaceOnUse"  x1="441.712" y1="326.646" x2="441.712" y2="255.321">
			<stop offset="0" stop-color="#d6a1a1"  />
			<stop offset="1" stop-color="#8f6c6c"  />
		</linearGradient>
		<linearGradient id="grd11" gradientUnits="userSpaceOnUse"  x1="436.982" y1="322.858" x2="436.982" y2="65.585">
			<stop offset="0" stop-color="#47270d"  />
			<stop offset="1" stop-color="#1f1206"  />
		</linearGradient>
		<linearGradient id="grd12" gradientUnits="userSpaceOnUse"  x1="442.282" y1="282.523" x2="442.282" y2="38.204">
			<stop offset="0" stop-color="#f8cccb"  />
			<stop offset="1" stop-color="#c79090"  />
		</linearGradient>
		<linearGradient id="grd13" gradientUnits="userSpaceOnUse"  x1="439.247" y1="170.876" x2="439.247" y2="0.854">
			<stop offset="0" stop-color="#47270d"  />
			<stop offset="1" stop-color="#1f1206"  />
		</linearGradient>
		<linearGradient id="grd14" gradientUnits="userSpaceOnUse"  x1="241.176" y1="513.541" x2="395.427" y2="513.541">
			<stop offset="0" stop-color="#f8cccb"  />
			<stop offset="1" stop-color="#c79090"  />
		</linearGradient>
		<linearGradient id="grd15" gradientUnits="userSpaceOnUse"  x1="451.058" y1="514.074" x2="451.058" y2="415.628">
			<stop offset="0" stop-color="#283981"  />
			<stop offset="1" stop-color="#060f44"  />
		</linearGradient>
	</defs>
	<style>
		tspan { white-space:pre }
		.shp0 { fill: #fbcc98 } 
		.shp1 { fill: #e67b83 } 
		.shp2 { fill: #f0d9b7 } 
		.shp3 { fill: #fce4ca } 
		.shp4 { fill: #6b584a } 
		.shp5 { fill: url(#grd1) } 
		.shp6 { fill: url(#grd2) } 
		.shp7 { fill: #638144 } 
		.shp8 { fill: url(#grd3) } 
		.shp9 { fill: #798b4b } 
		.shp10 { fill: url(#grd4) } 
		.shp11 { fill: #b3d359 } 
		.shp12 { fill: url(#grd5) } 
		.shp13 { fill: url(#grd6) } 
		.shp14 { fill: #3e5f28 } 
		.shp15 { fill: #5b7e3a } 
		.shp16 { fill: url(#grd7) } 
		.shp17 { fill: #f170ab } 
		.shp18 { fill: #fff8a1 } 
		.shp19 { fill: #fdb913 } 
		.shp20 { fill: url(#grd8) } 
		.shp21 { fill: url(#grd9) } 
		.shp22 { fill: #f89d1e } 
		.shp23 { fill: url(#grd10) } 
		.shp24 { fill: #2e1400 } 
		.shp25 { fill: url(#grd11) } 
		.shp26 { fill: url(#grd12) } 
		.shp27 { fill: url(#grd13) } 
		.shp28 { fill: url(#grd14) } 
		.shp29 { fill: #d1d3d4 } 
		.shp30 { fill: url(#grd15) } 
		.shp31 { fill: #efbdbd } 
		.shp32 { fill: #f8cccb } 
		.shp33 { fill: #1c2a66 } 
	</style>
	<g id="no bg">
		<g id="Mask" clip-path="url(#cp1)">
			<path id="Path 87" class="shp0" d="M191.38 496.7C187.54 485.73 169.08 462.13 170.09 450.55C171.31 436.51 178.31 422.98 181.44 409.25C185.67 390.7 177.29 368.04 172.51 349.63C170.66 342.48 166.44 333.6 159.11 334.53C153.34 335.27 150.48 341.77 148.72 347.31C145.77 356.57 142.82 361.82 139.87 371.07C125.24 363.68 120.88 361.38 98.17 361.38C84.56 361.38 76 363.79 62.68 366.58C59.71 367.21 52.74 372.7 50.19 371.05C49.13 370.37 44.79 359.05 43.72 352.29C42.64 345.54 38.29 334.14 31.45 334.46C26.02 334.73 21.48 341.48 18.68 349.55C11.32 370.78 14.41 392.87 18.57 414.95C18.57 414.95 19.2 438.79 26.25 448.67C30.46 454.57 36.17 460.2 36.45 467.43C36.74 475.09 30.85 481.33 26.38 487.56C16.98 500.62 12.86 516.69 9.74 532.48C2.22 570.55 -0.59 609.55 1.39 648.31C2.05 661.22 4.01 675.6 14.14 683.62C20.02 688.28 27.7 689.91 35.1 691.17C89.1 700.34 145.22 696.83 197.66 680.99C202.4 679.56 207.57 677.66 209.9 673.29C210.89 671.44 211.25 669.32 211.56 667.24C220.98 603.5 212.65 557.53 191.38 496.7Z" />
		</g>
		<path id="Path 89" class="shp1" d="M42.86 371.57C41.41 367.61 39.96 363.64 38.5 359.68C36.5 354.23 34.51 348.79 32.51 343.35C32.28 342.71 31.83 341.93 31.16 342.04C27.36 348.24 25.8 355.56 25.16 362.8C24.53 370.04 24.77 377.33 24.27 384.58L24.38 385.33C28.65 380.95 34.28 377.93 40.29 376.78C41.21 376.61 42.21 376.43 42.84 375.74C43.82 374.65 43.37 372.95 42.86 371.57ZM170.18 365.08L163.37 346.98C162.84 345.55 161.64 343.8 160.22 344.38C159.77 344.56 159.44 344.96 159.16 345.36C157.64 347.52 156.89 350.1 156.16 352.64C154.07 359.92 151.98 367.2 149.89 374.49L150.87 374.91C156.82 379.55 164.55 381.84 172.06 381.17C172.42 381.14 172.81 381.09 173.08 380.84C173.4 380.55 173.46 380.08 173.48 379.65C173.74 374.64 171.95 369.78 170.18 365.08Z" />
		<path id="Path 90" class="shp2" d="M65.62 472.47C65.84 480.98 71.63 488.6 78.86 493.1C86.09 497.59 94.62 499.46 103.02 500.87C106.71 501.49 110.51 502.04 114.18 501.31C119.63 500.24 124.14 496.53 128.39 492.95C131.73 490.14 135.28 486.99 136.12 482.7C136.54 480.55 136.22 478.31 135.55 476.22C132.63 467.1 123.37 461.16 113.94 459.48C104.52 457.79 94.85 459.61 85.47 461.57C77.75 463.18 69.19 465.49 65.16 472.27" />
		<path id="Path 91" class="shp1" d="M78 475.67C80.57 482.23 86.63 487.06 93.35 489.19C100.07 491.32 111.38 489.92 118.24 488.29C120.24 487.82 118.24 488.29 119.95 487.15C122.94 485.13 124.6 481.71 126.04 478.4C126.73 476.79 127.41 475.13 127.48 473.37C127.66 468.61 123.33 464.9 118.99 462.9C108.04 457.86 94.44 459.12 84.59 466.08C81.7 468.13 79.03 470.76 77.98 474.14" />
		<path id="Path 92" class="shp3" d="M50.13 464.58C54.08 473.75 62.23 480.56 71.29 482.26C80.35 483.95 94.73 482.33 101.19 475.1C112.82 482.08 127.06 483.56 139.67 479.11C145.04 477.2 150.25 474.16 153.86 469.37C157.47 464.57 159.25 457.82 157.49 451.9C154.75 442.66 145.07 438.63 136.44 436.76C113.5 431.77 84.65 431.63 62.69 440.48C57.03 442.76 51.09 445.95 48.45 451.94C45.81 457.92 48.88 467 54.9 467.11" />
		<path id="Path 93" class="shp4" d="M117.29 458.68C115.43 457.97 113.38 458.13 111.4 458.31C104.62 458.9 97.86 459.56 91.09 460.28C90.3 460.37 89.42 460.5 88.92 461.12C88.45 461.7 88.47 462.55 88.59 463.3C89.08 466.32 92.23 470.41 92.23 470.41C93.81 472.57 95.66 474.61 97.98 475.95C100.3 477.3 103.16 477.89 105.71 477.08C107.96 476.37 110.39 475.48 112.09 473.85C114.29 471.75 115.7 469.91 117.91 467.8C118.95 466.81 120.19 464.65 120.41 463.22C120.72 461.26 119.14 459.4 117.29 458.68Z" />
		<path id="Path 94" class="shp3" d="M180.01 621.27C179.04 617.28 177.03 613.62 175.72 609.73C173.22 602.28 173.22 593.87 168.95 587.28C163.27 578.5 150.06 575.74 141.34 581.52C132.62 587.29 130.01 600.53 135.88 609.19L136.09 609.57C138.29 615.5 135.63 621.97 134.56 628.2C133.21 636.03 134.49 644.29 138.16 651.34C140.4 655.64 143.6 659.57 147.87 661.86C152.14 664.15 157.57 664.58 161.8 662.21C164.62 660.64 166.67 658.01 168.6 655.43C176.01 645.46 182.96 633.33 180.01 621.27ZM37.05 621.27C38.02 617.28 40.03 613.62 41.34 609.73C43.85 602.28 43.84 593.87 48.11 587.28C53.8 578.5 67.01 575.74 75.73 581.52C84.44 587.29 87.06 600.53 81.19 609.19L80.97 609.57C78.77 615.5 81.44 621.97 82.51 628.2C83.86 636.03 82.57 644.29 78.9 651.34C76.67 655.64 73.46 659.57 69.19 661.86C64.92 664.15 59.49 664.58 55.26 662.21C52.45 660.64 50.39 658.01 48.47 655.43C41.06 645.46 34.11 633.33 37.05 621.27Z" />
		<path id="Path 95" class="shp5" d="M817.4 619.97L719.87 619.97L699.87 501.5L837.4 501.5L817.4 619.97Z" />
		<path id="Path 96" class="shp6" d="M799.35 221.52C788.8 225.78 778.8 231.42 769.7 238.24C762.57 243.58 755.71 250.08 753.17 258.61C750.39 267.94 753.23 278.24 750.44 287.56C748.97 292.48 746.03 296.8 743.71 301.38C740.31 308.12 738.25 315.44 736.21 322.7C734.85 327.53 733.49 332.45 733.63 337.46C733.77 342.47 735.64 347.68 739.66 350.68L740.55 347.26C738.91 355.82 737.62 365.75 743.39 372.29C745.56 374.76 748.52 376.4 751.49 377.83C758.24 381.08 765.4 383.49 772.74 384.98C778.47 386.15 784.64 386.71 789.95 384.28C795.16 381.91 798.74 377.05 801.93 372.29C811.01 358.76 819.18 342.24 814.18 326.73C812.92 322.85 810.89 319.25 809.71 315.34C808.45 311.14 808.21 306.72 807.99 302.34C807.6 294.87 807.21 287.39 806.83 279.92C806.16 266.83 805.55 253.31 810.18 241.04C811.52 237.49 813.31 234.02 813.71 230.24C814.12 226.46 812.71 222.13 809.26 220.53C808.24 220.05 807.15 219.86 806.05 219.86C803.81 219.86 801.47 220.66 799.35 221.52Z" />
		<path id="Path 97" class="shp7" d="M765.47 381.39C760.63 354.31 760.85 326.33 766.13 299.32C769.98 279.6 777.19 259.39 792.59 246.48C790.31 245.79 788.44 248.3 787.41 250.45C768.45 290.15 761.73 335.6 768.39 379.08" />
		<path id="Path 98" class="shp8" d="M650.9 276.69C648.68 277.51 646.32 278.76 645.6 281.01C645.19 282.29 645.39 283.67 645.63 284.98C647.45 295.18 651.37 305 657.09 313.65C662.57 321.94 669.61 329.09 675.47 337.12C681.32 345.15 686.09 354.54 685.97 364.48C685.87 372.63 682.49 380.54 682.84 388.68C683.03 393.15 684.35 397.49 685.65 401.77C689.67 414.95 693.73 428.24 700.39 440.29C707.06 452.35 716.6 463.24 729.07 469.1L729.3 468.01C730.65 463.55 733.31 459.62 736.08 455.88C750.83 435.96 769.96 419.2 781.86 397.47C784.78 392.13 787.27 386.4 787.73 380.34C788.18 374.28 786.32 367.79 781.73 363.81C777.78 360.38 772.44 359.2 767.51 357.44C759.41 354.56 751.97 349.83 745.92 343.73C738.87 336.61 733.76 327.74 726.71 320.62C721.92 315.79 716.31 311.83 711.45 307.07C702.97 298.76 696.8 288.02 687.03 281.25C680.44 276.68 672.41 274.31 664.4 274.31C659.8 274.31 655.21 275.09 650.9 276.69Z" />
		<path id="Path 99" class="shp9" d="M725.96 354.81C723 349.31 719.99 343.8 716.18 338.85C712.11 333.57 707.2 329.02 702.31 324.5L678.72 302.69L680.81 305.59C703.56 339.23 732.7 368.94 751.58 404.64C743.34 387.87 734.81 371.26 725.96 354.81ZM751.58 404.64C753.62 408.8 755.67 412.96 757.68 417.15C755.81 412.88 753.74 408.73 751.58 404.64Z" />
		<path id="Path 100" class="shp10" d="M869.61 287.88C859.08 288.51 848.39 289.16 838.41 292.61C824.59 297.38 812.99 307.28 803.99 318.81C795 330.33 788.38 343.5 782.05 356.68C779.26 362.5 776.42 368.46 771.83 373C768.47 376.33 764.32 378.73 760.45 381.45C740.98 395.1 728.1 417.72 726.29 441.43C725.9 446.53 726.01 451.75 727.56 456.62C729.16 461.66 732.3 466.2 736.44 469.48L737.02 469.8C752.96 482.41 774.85 487.15 794.59 482.26C802.63 480.26 810.84 476.26 814.65 468.9C817.92 462.58 817.35 455.07 817.95 447.98C819.69 427.46 831.62 409.41 843.49 392.58C847.84 386.41 852.33 380.08 854.15 372.75C856.49 363.34 854.21 353.13 857.19 343.89C860.28 334.25 868.5 327.32 874.56 319.21C880.62 311.09 884.42 299.18 878.14 291.23C877.05 289.84 875.65 288.63 873.96 288.13C873.13 287.88 872.27 287.81 871.41 287.81C870.81 287.81 870.21 287.84 869.61 287.88Z" />
		<path id="Path 101" class="shp11" d="M757.26 474.31C755.88 466.76 758.63 459.12 761.43 451.98C772.34 424.16 784.79 396.94 798.7 370.5C801.45 365.28 804.26 360.08 807.5 355.15C815.89 342.4 827.18 331.57 840.26 323.72C798.02 363.71 774.65 419.64 758.53 475.53" />
		<path id="Path 102" class="shp12" d="M695.75 464.24C686.92 464.24 679.77 471.4 679.77 480.22L679.77 505.95C679.77 514.77 686.92 521.93 695.75 521.93L841.53 521.93C850.35 521.93 857.51 514.77 857.51 505.95L857.51 480.22C857.51 471.4 850.35 464.24 841.53 464.24L695.75 464.24Z" />
		<path id="Path 103" class="shp13" d="M840.24 467.91C829.82 468.98 819.17 471.41 811.01 477.43C806.94 480.43 803.65 484.22 800.6 488.1C797.94 491.48 795.42 495 793.94 498.93C791.81 504.55 791.94 510.63 792.08 516.57C792.28 524.49 792.5 532.56 795.31 540.07C798.12 547.57 803.97 554.55 812.21 557.06L810.31 558.9C822 558.39 833.64 560.41 845.34 560.7C857.04 561 869.47 559.29 878.46 552.45C886.15 546.61 890.38 537.64 891.75 528.59C893.12 519.55 891.9 510.35 890.26 501.35C889.18 495.36 887.82 489.19 883.94 484.27C880.13 479.45 874.32 476.34 868.68 473.38C865.23 471.57 861.75 469.74 857.95 468.68C854.73 467.78 851.37 467.46 848 467.46C845.41 467.46 842.81 467.65 840.24 467.91Z" />
		<path id="Path 104" class="shp14" d="M857.95 468.74C855.7 468.12 853.39 467.78 851.05 467.62C857.1 498.17 858.16 529.69 854.14 560.57C855.45 560.47 856.75 560.33 858.05 560.15C862.36 558.21 865.82 554.31 867.87 549.96C870.53 544.34 871.24 538.02 871.92 531.83L875.25 501.34C876.11 493.44 876.96 485.32 875.91 477.51C873.58 476.04 871.12 474.72 868.68 473.44C865.23 471.63 861.75 469.8 857.95 468.74Z" />
		<path id="Path 105" class="shp15" d="M831.06 469.29C826.39 470.22 821.84 471.55 817.65 473.51C814.55 484.36 813.63 495.94 812.79 507.27C812.06 517.04 811.34 526.97 813.44 536.53C815.47 545.84 820.6 554.88 828.84 559.58L829.45 559.64C823.31 530.07 835.68 498.75 831.06 469.29Z" />
		<path id="Path 106" class="shp16" d="M796.2 551.2C791.72 551.2 788.2 555.03 788.54 559.5C791.24 594.46 795.74 620.66 842.17 620.66C889.57 620.66 893.24 594.45 895.81 559.47C896.14 555.01 892.62 551.2 888.15 551.2L796.2 551.2Z" />
		<path id="Path 107" class="shp17" d="M854.14 446.65C850.81 449.18 847.47 451.7 844.13 454.23C843.42 452.93 842.71 451.63 841.99 450.33C841.76 449.9 841.46 449.42 840.98 449.33C840.5 449.24 840.06 449.57 839.69 449.89C838.09 451.3 836.66 452.92 835.48 454.7C833.14 452.62 831.21 450.09 829.81 447.29C826.09 454.11 826.42 462.97 830.65 469.49L830.1 470.3C836.13 471.78 842.44 471.44 848.64 471.09C850.83 470.96 853.21 470.76 854.79 469.24C856.08 468.01 856.55 466.16 856.81 464.39C857.68 458.39 856.74 452.14 854.14 446.65Z" />
		<path id="Path 108" class="shp18" d="M812.64 481.19C813.29 481.61 813.76 482.11 814.14 482.78C814.57 483.53 815.74 483.37 815.97 482.54C816.41 480.94 817.19 479.55 818.35 478.36C819.25 477.44 817.83 476.02 816.93 476.95C815.55 478.38 814.57 480.09 814.04 482.01L815.87 481.77C815.32 480.81 814.58 480.06 813.65 479.46C812.56 478.77 811.56 480.5 812.64 481.19ZM810.68 491.3C811.42 492.02 812.55 493.72 813.76 493.3C814.3 493.11 814.62 492.58 814.97 492.16C815.52 491.51 816.07 490.86 816.62 490.2C817.45 489.23 816.04 487.81 815.21 488.79C814.78 489.29 814.36 489.8 813.93 490.3C813.64 490.64 813.26 491.34 812.87 491.52C813.13 491.49 813.38 491.46 813.64 491.42C813.87 491.6 813.82 491.54 813.49 491.25C813.35 491.11 813.21 490.97 813.07 490.84C812.74 490.52 812.42 490.2 812.09 489.89C811.17 488.99 809.75 490.4 810.68 491.3ZM810.32 503.65C811.07 504.42 812.11 505.99 813.38 505.4C813.91 505.15 814.19 504.58 814.51 504.12C815 503.42 815.48 502.71 815.97 502.01C816.7 500.94 814.97 499.94 814.24 501C813.83 501.6 813.01 502.42 812.78 503.11C812.48 503.35 812.49 503.47 812.8 503.49C813.12 503.62 813.11 503.56 812.77 503.29C812.51 502.91 812.06 502.57 811.73 502.24C810.83 501.32 809.41 502.73 810.32 503.65ZM809.01 522.42C809.62 522.81 810.23 523.21 810.85 523.6C811.35 523.92 811.88 524.35 812.52 524.25C813.07 524.15 813.36 523.77 813.66 523.35C814.16 522.66 814.64 521.96 815.12 521.27C815.87 520.21 814.13 519.21 813.4 520.26C813.1 520.69 812.8 521.11 812.5 521.54C812.35 521.75 812.2 521.96 812.05 522.18C812.51 522.33 812.6 522.32 812.31 522.17C812.08 521.89 811.55 521.68 811.24 521.48C810.83 521.22 810.43 520.95 810.02 520.69C808.93 519.99 807.93 521.72 809.01 522.42ZM810.01 534.7C810.93 535.11 811.86 535.51 812.79 535.91C813.36 536.16 814.08 536 814.26 535.31C814.51 534.32 814.89 533.41 815.44 532.55C816.13 531.45 814.39 530.45 813.71 531.54C813.08 532.54 812.62 533.63 812.33 534.78C812.82 534.58 813.31 534.38 813.8 534.18C812.87 533.78 811.94 533.38 811.02 532.98C809.85 532.47 808.83 534.19 810.01 534.7ZM812.61 546.09C813.61 546.57 815.37 547.92 816.49 547.12C817.47 546.42 817.35 544.59 817.5 543.53C817.67 542.27 815.75 541.73 815.57 543C815.47 543.74 815.21 544.63 815.24 545.38C815.17 545.67 815.19 545.68 815.29 545.41C815.47 545.19 815.38 545.07 815.03 545.04C814.67 544.74 814.04 544.56 813.62 544.36C812.46 543.8 811.45 545.52 812.61 546.09ZM828.54 478.69C829.06 479.79 830.05 482.61 831.66 482.45C832.39 482.38 832.69 481.7 833.16 481.24C833.94 480.47 834.94 480.06 836.03 479.99C837.31 479.91 837.32 477.91 836.03 477.99C835.05 478.05 834.11 478.27 833.23 478.73C832.81 478.96 832.4 479.24 832.04 479.56C831.71 479.85 831.41 480.42 831.02 480.6C831.27 480.57 831.53 480.54 831.79 480.5C831.57 480.42 831.17 479.43 831.04 479.19C830.76 478.7 830.51 478.19 830.27 477.68C829.73 476.51 828 477.52 828.54 478.69ZM828.87 495.5C829.44 496.46 830.19 498.65 831.69 498.14C832.4 497.91 833.01 497.14 833.54 496.65C834.22 496.04 834.89 495.43 835.57 494.81C836.52 493.94 835.11 492.53 834.16 493.4C833.33 494.14 832.51 494.89 831.69 495.64C831.59 495.72 831.5 495.81 831.4 495.9C831.17 496.02 831.21 496.13 831.5 496.23C831.94 496.86 831.53 496.07 831.46 495.95C831.17 495.46 830.88 494.98 830.59 494.49C829.94 493.39 828.21 494.39 828.87 495.5ZM826.15 509.78C827.06 510.7 828.23 512.55 829.74 511.76C831.44 510.89 832.14 508.88 834.26 508.6C835.52 508.44 835.53 506.43 834.26 506.6C832.83 506.79 831.71 507.36 830.61 508.28C830.19 508.62 829.09 509.34 828.93 509.84C828.65 510.04 828.72 510.08 829.14 509.97C829.01 509.84 828.88 509.71 828.75 509.57C828.5 509.13 827.91 508.72 827.56 508.37C826.66 507.45 825.24 508.86 826.15 509.78ZM826.42 521.51C827.04 522.21 827.66 522.91 828.29 523.6C828.69 524.05 829.59 523.97 829.86 523.4C830.59 521.84 831.68 520.66 833.2 519.84C834.33 519.23 833.32 517.51 832.19 518.12C830.4 519.08 828.99 520.55 828.13 522.39C828.65 522.32 829.18 522.26 829.7 522.19C829.07 521.5 828.45 520.8 827.83 520.1C826.98 519.13 825.57 520.55 826.42 521.51ZM824.28 534.93C825.06 536.12 826.4 538.09 828.08 537.67C828.66 537.53 829.11 537.11 829.5 536.68C829.81 536.34 830.16 535.64 830.66 535.69C831.93 535.84 831.92 533.84 830.66 533.69C829.63 533.57 828.92 534.3 828.3 535.01C828.13 535.21 827.64 535.74 827.63 535.74C827.09 535.69 826.25 534.28 826.01 533.92C825.31 532.85 823.58 533.85 824.28 534.93ZM824.5 545.78C824.97 545.73 825.62 546.54 826.13 546.69C826.73 546.86 827.36 546.78 827.93 546.55C829.31 545.98 829.89 544.61 830.36 543.29C830.79 542.07 828.86 541.55 828.43 542.76C828.19 543.44 827.68 545.04 826.66 544.76C826.32 544.67 826.05 544.28 825.75 544.1C825.36 543.86 824.96 543.74 824.5 543.78C823.23 543.91 823.22 545.91 824.5 545.78ZM849.56 477.89C850.05 478.07 850.36 478.77 850.7 479.13C851.07 479.53 851.5 479.85 852.05 479.92C853.65 480.13 854.87 478 855.78 476.99C856.63 476.04 855.22 474.62 854.36 475.58C853.82 476.18 853.28 476.79 852.73 477.39C852.31 477.86 852.45 478.09 852.04 477.64C851.43 476.94 851 476.3 850.09 475.97C848.88 475.52 848.36 477.45 849.56 477.89ZM851.54 492.25C852.39 492.91 853.23 493.6 854.09 494.24C854.63 494.63 855.22 494.97 855.9 494.71C856.57 494.47 856.8 493.82 857.09 493.23C857.57 492.28 858.05 491.34 858.53 490.39C859.1 489.24 857.38 488.23 856.8 489.38C856.26 490.45 855.72 491.51 855.19 492.58C854.86 493.23 855.24 492.65 855.19 492.58C855.06 492.39 854.73 492.22 854.55 492.08C854.02 491.66 853.49 491.25 852.95 490.83C851.95 490.05 850.52 491.46 851.54 492.25ZM853.43 505.26C853.02 505.32 853.12 505.12 853.32 505.48C853.45 505.7 853.64 505.94 853.82 506.12C854.22 506.53 854.76 506.81 855.35 506.71C856.17 506.57 856.61 505.88 857.05 505.25C857.64 504.41 858.23 503.58 858.82 502.75C859.56 501.7 857.83 500.69 857.09 501.74C856.61 502.42 856.12 503.11 855.64 503.8C855.46 504.05 855.14 504.39 855.01 504.68C855.27 504.82 855.34 504.83 855.23 504.7C855.18 504.65 855.14 504.6 855.1 504.54C854.72 503.67 853.81 503.2 852.9 503.33C851.63 503.51 852.17 505.44 853.43 505.26ZM852.7 516.17C853.36 516.94 854.02 517.71 854.69 518.47C855.01 518.86 855.78 518.87 856.1 518.47C857.02 517.34 857.94 516.2 858.86 515.05C859.66 514.06 858.26 512.64 857.45 513.64C856.53 514.78 855.61 515.92 854.69 517.06L856.1 517.06C855.44 516.29 854.77 515.52 854.11 514.75C853.27 513.78 851.86 515.2 852.7 516.17ZM852.66 531.02C853.61 531.75 855.45 533.88 856.8 533.07C857.41 532.7 857.74 531.87 858.1 531.29L859.67 528.76C860.36 527.67 858.62 526.66 857.95 527.75C857.32 528.76 856.69 529.77 856.06 530.78C856.03 530.84 855.66 531.46 855.64 531.46C855.77 531.34 855.89 531.23 856.02 531.11C855.91 531.03 855.8 530.94 855.69 530.86C855.35 530.39 854.55 529.98 854.08 529.61C853.07 528.83 851.64 530.24 852.66 531.02ZM851.69 544.24C852.46 544.98 853.24 545.72 854.02 546.46C854.54 546.95 855.06 547.57 855.78 547.73C857.35 548.09 858.29 546.59 858.76 545.33C859.21 544.12 857.28 543.6 856.83 544.8C856.74 545.03 856.5 545.74 856.2 545.77C856.02 545.78 855.43 545.05 855.29 544.91C854.56 544.21 853.83 543.52 853.1 542.83C852.17 541.94 850.75 543.35 851.69 544.24ZM872.86 486.1C873.26 486.88 873.67 487.66 874.08 488.44C874.31 488.87 874.78 488.96 875.21 488.9C876.77 488.67 878.22 488.1 879.52 487.21C880.57 486.48 879.57 484.75 878.51 485.48C877.33 486.29 876.09 486.76 874.68 486.97C875.06 487.12 875.43 487.28 875.81 487.43C875.4 486.65 874.99 485.87 874.58 485.09C873.99 483.95 872.26 484.96 872.86 486.1ZM872.21 498.34C872.82 499.33 873.6 501.23 875.11 500.68C875.81 500.43 876.41 499.81 877 499.37C877.85 498.74 878.69 498.12 879.54 497.49C880.56 496.73 879.57 494.99 878.53 495.76C877.57 496.48 876.6 497.19 875.63 497.91C875.39 498.09 875.15 498.27 874.91 498.45C874.45 498.66 874.42 498.76 874.82 498.76C874.51 498.61 874.12 497.63 873.93 497.33C873.26 496.23 871.53 497.24 872.21 498.34ZM872.3 512.88C872.35 512.88 872.41 512.87 872.47 512.87C872.24 512.77 872 512.67 871.77 512.57C872.17 512.9 872.16 513.5 872.67 513.81C873.11 514.09 873.66 514.13 874.16 514.03C874.69 513.93 875.18 513.68 875.59 513.34C876.05 512.95 876.49 512.15 877.14 512.18C878.42 512.23 878.42 510.23 877.14 510.18C875.76 510.12 875.24 511.11 874.27 511.84C873.63 512.31 873.86 512.08 873.53 511.57C873.25 511.12 872.85 510.83 872.3 510.88C871.03 511.01 871.01 513.01 872.3 512.88ZM870.35 525.38C870.44 526.44 871.25 527.21 872.36 527.14C872.89 527.1 873.33 526.86 873.74 526.53C874.23 526.12 874.59 525.41 875.23 525.26C876.48 524.95 875.95 523.02 874.7 523.33C874.1 523.47 873.63 523.78 873.2 524.21C872.99 524.41 872.83 524.65 872.62 524.85C872.56 524.91 872.49 524.97 872.43 525.03C872.2 525.09 872.18 525.2 872.35 525.38C872.24 524.11 870.23 524.09 870.35 525.38ZM868.17 538.46C868.59 539.9 870.02 540.66 871.47 540.5C873.22 540.31 874.35 538.82 875.29 537.49C876.03 536.43 874.29 535.43 873.56 536.48C873.08 537.16 872.53 538.02 871.73 538.37C871.19 538.62 870.3 538.62 870.1 537.93C869.74 536.7 867.8 537.22 868.17 538.46ZM866.23 547.06C866.75 547.49 867.27 547.92 867.79 548.36C868.2 548.7 868.8 548.77 869.2 548.36C870.13 547.42 871.06 546.47 871.99 545.53C872.9 544.62 871.48 543.2 870.58 544.12C869.65 545.06 868.72 546 867.79 546.94L869.2 546.94C868.69 546.51 868.16 546.08 867.64 545.64C866.66 544.83 865.24 546.23 866.23 547.06ZM798.79 483.03C798.79 484.74 799.44 486.35 801.27 486.73C803.15 487.11 804.7 485.88 805.99 484.68C806.93 483.8 805.51 482.39 804.57 483.27C803.89 483.9 803.1 484.73 802.11 484.8C800.98 484.87 800.79 483.96 800.79 483.03C800.78 481.74 798.78 481.74 798.79 483.03ZM791.84 496.78C792.36 497.65 792.96 499.38 794.22 499.29C794.82 499.24 795.22 498.82 795.62 498.41C796.27 497.75 796.9 497.06 797.54 496.39C798.43 495.46 797.02 494.04 796.13 494.98C795.72 495.41 795.3 495.84 794.89 496.27C794.73 496.45 794.03 497.27 793.99 497.27C794.22 497.37 794.46 497.47 794.69 497.56C794.23 497.19 793.87 496.28 793.56 495.77C792.9 494.67 791.17 495.67 791.84 496.78ZM788.88 510.8C789.69 511.45 790.96 512.95 792.16 512.6C792.73 512.44 793.04 511.92 793.34 511.45C793.8 510.73 794.24 510 794.69 509.27C795.36 508.17 793.64 507.17 792.96 508.26C792.7 508.67 792.45 509.09 792.19 509.5C792.03 509.76 791.54 510.3 791.52 510.59C791.31 510.85 791.44 510.88 791.92 510.68C791.73 510.54 791.55 510.4 791.37 510.25C791.01 509.96 790.65 509.67 790.29 509.38C789.29 508.59 787.87 509.99 788.88 510.8ZM788.83 523.19C789.59 523.59 790.35 523.99 791.11 524.38C791.64 524.65 792.15 524.92 792.75 524.71C793.38 524.48 793.67 523.78 793.98 523.24C794.45 522.4 794.92 521.57 795.4 520.73C796.03 519.61 794.31 518.6 793.67 519.73C793.51 520.01 791.7 522.75 791.84 522.95C792.04 522.91 792.25 522.87 792.45 522.82C792.34 522.77 792.23 522.71 792.12 522.65C791.94 522.51 791.67 522.42 791.47 522.31C790.93 522.03 790.38 521.75 789.84 521.46C788.7 520.87 787.69 522.59 788.83 523.19ZM790.96 539.09C791.92 539.53 793.58 540.75 794.66 540.17C795.14 539.91 795.34 539.33 795.57 538.87C795.94 538.11 796.32 537.35 796.69 536.59C797.26 535.44 795.54 534.42 794.97 535.58C794.7 536.12 794.43 536.66 794.16 537.21C793.96 537.62 793.78 538.29 793.44 538.6C793.68 538.5 793.91 538.4 794.15 538.3C793.59 538.35 792.48 537.6 791.97 537.37C790.81 536.83 789.79 538.56 790.96 539.09ZM886.34 496.77C886.71 496.84 886.98 497.59 887.23 497.87C887.57 498.24 888 498.51 888.51 498.53C889.21 498.56 889.72 498.1 890.24 497.7C891.06 497.06 891.87 496.41 892.69 495.77C893.7 494.98 892.28 493.57 891.28 494.36C890.71 494.8 890.15 495.24 889.59 495.68C889.34 495.88 889.05 496.06 888.82 496.28C888.52 496.59 888.94 496.67 888.57 496.33C887.95 495.76 887.81 495.03 886.87 494.84C885.61 494.59 885.07 496.51 886.34 496.77ZM888.93 514.91C889.59 515.57 890.25 516.24 890.91 516.91C891.4 517.4 892.12 517.22 892.48 516.71C893.5 515.27 894.77 514.13 896.29 513.25C897.4 512.6 896.39 510.87 895.28 511.52C893.46 512.58 891.97 513.98 890.76 515.7C891.28 515.63 891.8 515.56 892.33 515.49C891.67 514.83 891.01 514.16 890.35 513.49C889.44 512.58 888.03 513.99 888.93 514.91ZM887.77 530.84C887.44 532.36 887.79 534.24 889.7 534.28C890.42 534.3 891.16 534.01 891.76 533.61C892.46 533.13 893.08 532.15 894.01 532.18C895.29 532.22 895.29 530.22 894.01 530.18C893 530.15 892.21 530.63 891.46 531.25C891.1 531.55 890.79 531.9 890.37 532.11C889.6 532.48 889.54 532.11 889.7 531.38C889.97 530.12 888.04 529.58 887.77 530.84ZM883.28 540.66C882.77 542.53 883.96 544.33 885.82 544.79C888.18 545.37 890.2 543.82 891.88 542.38C892.86 541.54 891.44 540.13 890.47 540.97C889.62 541.69 888.73 542.5 887.63 542.79C886.56 543.08 884.8 542.68 885.21 541.19C885.55 539.94 883.62 539.41 883.28 540.66Z" />
		<path id="Path 109" class="shp19" d="M329.24 291.83L331.46 290.04C330.2 290.06 329.19 290.58 329.24 291.83ZM331.46 290.04C331.46 290.04 331.46 290.04 331.46 290.04C331.49 290.02 331.51 290 331.53 289.98L331.46 290.04Z" />
		<path id="Path 110" class="shp20" d="M274.15 432.2C270.85 432.45 266.39 434.56 267.65 437.63L265.23 437.13C262.89 463.11 257.26 488.79 248.54 513.37C245.76 521.18 242.63 529.16 242.93 537.44C243.24 545.73 248.05 554.53 256.1 556.51C266.17 558.98 275.15 550.47 283.24 543.99C290.66 538.05 299.15 533.21 305.02 525.74C309.3 520.29 311.94 513.75 314.15 507.18C321.42 485.58 324.61 462.62 323.52 439.85C323.47 438.71 323.35 437.47 322.54 436.68C321.96 436.12 321.12 435.9 320.33 435.72C309.01 433.09 297.38 431.76 285.75 431.76C281.88 431.76 278.01 431.91 274.15 432.2Z" />
		<path id="Path 111" class="shp19" d="M356.67 325.49C353.43 312.04 346.34 299.1 335.04 291.12C334.07 290.44 332.65 290.02 331.46 290.04C308.33 308.9 290.98 334.07 277.77 360.83C264.54 387.62 255.22 416.14 245.95 444.54C245.4 446.23 244.85 448.04 245.32 449.75C246.22 452.98 250.13 454.14 253.43 454.73C279.92 459.44 306.92 461.28 333.8 460.2C335.35 460.14 336.98 460.04 338.28 459.2C339.96 458.12 340.69 456.09 341.3 454.2C350.46 425.87 356.26 396.46 358.55 366.78C359.61 352.99 359.9 338.94 356.67 325.49ZM543.27 291.83L541.05 290.04C542.31 290.06 543.32 290.58 543.27 291.83ZM541.05 290.04C541.05 290.04 541.05 290.04 541.05 290.04C541.02 290.02 541 290 540.98 289.98L541.05 290.04Z" />
		<path id="Path 112" class="shp21" d="M567.33 435.72C566.54 435.9 565.7 436.12 565.12 436.68C564.31 437.47 564.19 438.71 564.14 439.85C563.05 462.62 566.25 485.58 573.51 507.18C575.72 513.75 578.36 520.29 582.64 525.74C588.51 533.21 597.01 538.05 604.42 543.99C612.51 550.47 621.49 558.98 631.56 556.51C639.61 554.53 644.43 545.73 644.73 537.44C645.03 529.16 641.9 521.18 639.13 513.37C630.4 488.79 624.78 463.11 622.44 437.13L620.01 437.63C621.27 434.56 616.81 432.45 613.51 432.2C609.65 431.91 605.78 431.76 601.91 431.76C590.28 431.76 578.65 433.09 567.33 435.72Z" />
		<path id="Path 113" class="shp19" d="M515.84 325.49C519.08 312.04 526.17 299.1 537.47 291.12C538.44 290.44 539.86 290.02 541.05 290.04C564.18 308.9 581.53 334.07 594.74 360.83C607.97 387.62 617.29 416.14 626.56 444.54C627.11 446.23 627.66 448.04 627.19 449.75C626.29 452.98 622.38 454.14 619.08 454.73C592.59 459.44 565.59 461.28 538.71 460.2C537.16 460.14 535.53 460.04 534.23 459.2C532.55 458.12 531.82 456.09 531.21 454.2C522.05 425.87 516.25 396.46 513.96 366.78C512.9 352.99 512.61 338.94 515.84 325.49Z" />
		<path id="Path 114" class="shp22" d="M544.66 462.9C540.72 418.23 542.75 372.93 534.59 328.83C529.66 302.22 519.44 274.17 496.5 259.81C486.13 253.31 474.04 250.22 462.06 247.72C444.37 244.03 426.24 241.44 408.26 243.16C390.27 244.89 372.3 251.25 359.08 263.57L363.26 266.91C343.13 294.54 339.44 330.47 336.42 364.53C331.23 423.03 325.02 576 324.4 588.84C324.17 593.66 324.21 607.78 324.67 621.14L559.58 621.14C552.38 570.39 549.08 512.88 544.66 462.9Z" />
		<path id="Path 115" class="shp23" d="M409.5 269.57C405.47 273.04 401.85 277.15 399.88 282.09C397.9 287.03 397.77 292.89 400.42 297.5L398.63 297.17C404.35 305.4 410.57 313.48 418.63 319.44C426.69 325.39 436.88 329.06 446.78 327.47C455.51 326.07 463.1 320.83 470.03 315.35C472.99 313 475.9 310.57 478.34 307.7C486.15 298.49 488.24 285.05 484.45 273.6C483.47 270.65 482.11 267.78 480.03 265.47C477.49 262.66 474.03 260.85 470.52 259.44C463.62 256.67 456.21 255.32 448.79 255.32C434.57 255.32 420.3 260.26 409.5 269.57Z" />
		<path id="Path 116" class="shp24" d="M313.5 155.07L309.54 158.63C310.02 158.34 310.46 158.01 310.93 157.71C311.69 156.75 312.53 155.86 313.5 155.07Z" />
		<path id="Path 117" class="shp25" d="M419.43 65.47C413.04 66.27 407.04 68.89 401.15 71.48C380.64 80.48 359.29 90.11 345.33 107.62C332.35 123.89 347.84 136.34 330.62 147.67C326.02 153.44 299.98 166.76 300.73 170.52C302.45 179.19 308.26 196.78 308.05 205.62C307.52 228.11 287.06 247.14 288.83 269.57C289.43 277.14 292.59 284.29 296.32 290.91C305.26 306.74 319.07 321.27 336.93 324.69C343.67 325.98 350.61 325.62 357.44 324.93C368.37 323.82 379.52 321.78 388.9 316.06C399.23 309.74 406.57 299.41 411.68 288.43C415.88 279.41 418.83 269.68 424.65 261.61C431.84 251.66 443.29 244.92 455.48 243.45C461.4 242.74 468.1 243.54 472.04 248.01C474.72 251.05 475.63 255.26 475.95 259.3C476.39 264.72 475.94 270.2 474.64 275.47C473.04 281.95 470.13 288.42 471.13 295.01C472.29 302.65 478.46 308.55 484.94 312.77C506.84 327.03 536.56 328.28 559.57 315.91C564.65 313.18 569.43 309.82 573.42 305.65C590.04 288.22 589.49 260.11 580.9 237.6C577.59 228.94 573.28 220.64 570.68 211.73C564.96 192.05 568.05 171.07 568.46 150.58C568.86 130.1 565.61 107.67 550.64 93.67C544.32 87.75 536.42 83.86 528.63 80.1C516.11 74.04 503.3 67.98 489.52 66.06C480.42 64.79 471.24 65.36 462.05 65.93C454.71 66.38 447.37 66.84 440.06 66.36C434.83 66.01 429.58 65.19 424.36 65.19C422.71 65.19 421.07 65.27 419.43 65.47Z" />
		<path id="Path 118" class="shp26" d="M408.79 47.15C396.11 54.49 385.76 65.34 377.05 77.13C362.69 96.58 352.33 118.98 346.81 142.52L347.67 140.85C347.01 145.93 347.45 151.09 347.99 156.18C350.92 183.67 357.05 211.41 371.31 235.1C385.57 258.79 408.95 278.09 436.27 282.35C444.79 283.68 453.83 283.48 461.63 279.81C466.19 277.67 470.14 274.44 474.02 271.24C495.08 253.82 516.36 234.93 526.98 209.74C531.51 198.99 533.91 187.47 536.28 176.04C540.03 157.97 543.69 138.67 536.92 121.5C533.73 113.39 528.38 106.32 523.07 99.41C507.55 79.23 491.09 58.8 468.86 46.4C463.27 43.27 457.32 40.69 451.06 39.33C447.54 38.56 443.97 38.2 440.39 38.2C429.4 38.2 418.37 41.61 408.79 47.15Z" />
		<path id="Path 119" class="shp27" d="M421.73 1.48C384.05 5.23 349.28 27.39 327.22 58.17C305.17 88.95 295.39 127.65 296.8 165.48C296.85 166.92 296.95 168.44 297.8 169.59C299.45 171.82 302.81 171.5 305.52 170.94C316.88 168.59 328.21 166.15 339.52 163.61C348.92 161.49 358.4 159.28 367.06 155.05C374.57 151.39 386.24 146.16 392.81 140.99C406.16 130.48 417.95 122.37 428.21 108.82C436.8 97.48 442.17 82.57 443.93 68.05C443.22 81.91 444.32 96.66 451.56 107.89C456.7 115.87 464.73 121.5 472.75 126.57C498.63 142.96 527.48 156.11 558.05 158.07C562.59 158.36 571.35 161.25 575.1 158.69C580 155.36 579.68 148.19 580.65 142.35C581.79 135.51 580.71 126.38 580.65 119.45C580.56 109.17 578.15 99.04 575.2 89.19C572.64 80.66 569.67 72.22 565.49 64.36C555.64 45.82 539.35 31.16 520.87 21.2C502.39 11.24 481.76 5.76 460.96 2.85C452.3 1.64 443.55 0.85 434.8 0.85C430.44 0.85 426.08 1.05 421.73 1.48Z" />
		<path id="Path 120" class="shp28" d="M297.55 484.26C289.28 487.2 280.98 490.15 273.27 494.32C264.36 499.14 256.32 505.56 249.65 513.19C239.04 525.32 232.05 543.58 240.36 557.39C246.02 566.81 257.59 571.49 268.58 571.32C279.56 571.15 290.06 566.82 299.75 561.64C319.32 551.18 336.68 537.09 353.91 523.09L374.77 506.12C380.72 501.29 386.75 496.36 391.1 490.04C395.44 483.72 397.93 475.7 395.99 468.29C394.04 460.87 386.8 454.66 379.19 455.55L379 455.3C351.85 464.95 324.7 474.6 297.55 484.26Z" />
		<path id="Path 121" class="shp29" d="M495.62 415C493.42 412.71 488.98 412.74 485.67 412.42C464.39 410.38 442.77 410.52 421.54 412.86C416.76 413.38 411.97 414.02 407.41 415.27C406.77 415.45 406 415.66 405.66 416.12C405.33 416.6 405.73 417.37 406.41 417.37L406.84 417.64C409.81 417.68 412.41 419.12 415.22 419.87C417.48 420.47 419.89 420.61 422.28 420.73C445.47 421.93 468.8 421.45 491.89 419.3C493.07 419.19 494.37 419.03 495.15 418.31C496.26 417.3 496.58 415.99 495.62 415Z" />
		<path id="Path 122" class="shp30" d="M405.58 416.74L405.71 419.11C409.58 443.64 411.69 468.45 412 493.28C412.06 498.65 412.32 504.69 416.27 508.33C418.6 510.48 421.81 511.35 424.9 512.04C445.08 516.56 466.31 516.39 486.42 511.54C488.77 510.98 491.28 510.24 492.77 508.34C494.07 506.7 494.35 504.5 494.57 502.42C497.65 473.61 498.18 444.53 496.13 415.63L405.58 416.74Z" />
		<path id="Path 123" class="shp31" d="M431.18 443.38C429.08 438.82 425.19 434.87 420.31 433.72C417.13 432.98 413.81 433.46 410.58 433.93C407.36 434.41 404.13 434.89 400.91 435.37C394.2 436.36 386.77 437.77 382.76 443.24L380.67 445.59C377.03 461.51 379.34 476.93 386.44 491.64C387.38 493.58 388.44 495.53 390.1 496.9C392.03 498.5 394.57 499.15 397.02 499.69C406.18 501.7 416.8 502.45 423.91 496.34C428.78 492.16 430.89 485.65 432.14 479.36C433.54 472.36 434.15 465.21 433.97 458.07C433.84 453.05 433.29 447.94 431.18 443.38Z" />
		<path id="Path 124" class="shp32" d="M645.04 534.24C641.49 530.56 636.58 528.6 631.82 526.75C604.12 515.94 570.65 507.23 541.83 499.89C534.28 497.96 526.17 496 520.94 490.22C513 481.45 514.45 466.9 506.39 458.23C505.02 456.75 503.02 455.42 501.11 456.05C500.24 456.33 499.54 456.99 498.97 457.7C493.2 464.86 495.45 481.37 495.45 481.37C478.39 487.21 455.78 486.44 437.8 487.79C434.29 488.05 429.77 489.47 429.82 492.98C429.84 495.19 431.82 496.83 433.66 498.05C444.66 505.31 457.64 509.56 470.81 510.19C477.78 510.52 484.91 509.88 491.62 511.82C495.83 513.04 499.69 515.23 503.51 517.41C522.96 528.5 542.42 539.59 561.88 550.68C569.64 555.1 587.12 563.44 595.49 566.55C607.22 570.91 615.6 571.36 628.05 570.15C632.91 569.67 642.25 567.9 646.29 565.14C654.75 559.34 652.15 541.62 645.04 534.24Z" />
		<path id="Path 125" class="shp33" d="M411.15 420.77C387.52 423.82 386.22 450.23 387.6 469.3C388.34 479.51 389.23 492.89 394.28 501.98C398.83 510.17 409.51 509.32 417.58 510.16C425.66 511.01 425.6 498.38 417.58 497.54C410.9 496.84 406.51 497.93 403.99 491.28C401.66 485.17 400.94 477.6 400.36 471.14C399.47 461.19 396.84 435.24 411.15 433.4C419.09 432.37 419.19 419.73 411.15 420.77Z" />
	</g>
</svg>